<?xml version="1.0" encoding="utf-8"?>
<!-- Generator: Adobe Illustrator 26.3.1, SVG Export Plug-In . SVG Version: 6.00 Build 0)  -->
<svg version="1.1" xmlns="http://www.w3.org/2000/svg" xmlns:xlink="http://www.w3.org/1999/xlink" x="0px" y="0px"
	 viewBox="0 0 851.7 114" style="enable-background:new 0 0 851.7 114;" xml:space="preserve">
<style type="text/css">
	.st0{fill:#FFFFFF;}
	.st1{fill:#FFFFFF;stroke:#FFFFFF;stroke-miterlimit:10;}
</style>
<g id="Layer_2">
</g>
<g id="Layer_1">
	<polygon class="st0" points="100,66.4 102.3,66.4 107.4,75.8 107.5,75.8 107.5,66.4 109.1,66.4 109.1,78.1 107,78.1 101.7,68.5 
		101.7,68.5 101.7,78.1 100,78.1 	"/>
	<path class="st0" d="M112.4,71.5c0.7-0.6,1.6-0.9,2.5-0.9c1.6,0,2.1,0.8,2.1,2.2c-0.6,0-1,0-1.7,0c-1.6,0-4,0.7-4,2.8
		c0,1.8,1.3,2.7,3.1,2.7c1.1,0,2.1-0.5,2.7-1.3l0,0v1.1h1.5c-0.1-0.6-0.1-1.1-0.1-1.7v-3.5c0-2.3-1-3.5-3.4-3.5c-1,0-2,0.3-2.8,0.8
		L112.4,71.5z M117,74.8c0,1.2-0.9,2.2-2.1,2.2c-0.1,0-0.1,0-0.2,0c-0.8,0-1.5-0.6-1.6-1.4c0-1.5,2.1-1.7,3-1.7c0.3,0,0.7,0,1,0
		L117,74.8z"/>
	<path class="st0" d="M125.8,70.8h-2.2v4.7c-0.1,0.7,0.5,1.4,1.2,1.5c0,0,0.1,0,0.1,0c0.4,0,0.8-0.1,1.1-0.3V78
		c-0.4,0.1-0.9,0.2-1.3,0.2c-1.6,0-2.6-0.8-2.6-2.5v-5H120v-1.3h1.9v-2l1.6-0.5v2.5h2.3V70.8z"/>
	<path class="st0" d="M129.6,65.9h-1.8v1.8h1.8V65.9z M127.9,78.1h1.6v-8.6h-1.6V78.1z"/>
	<path class="st0" d="M131.8,73.8c-0.1,2.4,1.8,4.4,4.2,4.5c0.1,0,0.1,0,0.2,0c2.4,0,4.3-1.9,4.3-4.3c0-0.1,0-0.1,0-0.2
		c0.2-2.3-1.6-4.3-3.9-4.5c-0.1,0-0.3,0-0.4,0c-2.3-0.1-4.3,1.7-4.4,4.1C131.8,73.6,131.8,73.7,131.8,73.8 M133.5,73.8
		c0-1.6,1-3.2,2.7-3.2s2.7,1.6,2.7,3.2S138,77,136.1,77S133.5,75.3,133.5,73.8"/>
	<path class="st0" d="M142.6,69.6h1.5v1.3l0,0c0.6-1,1.6-1.6,2.8-1.6c2.2,0,3.2,1.4,3.2,3.7v5.1h-1.5v-4.4c0-2-0.4-3-1.8-3.1
		c-1.8,0-2.6,1.4-2.6,3.5v4h-1.6V69.6z"/>
	<path class="st0" d="M153.2,71.5c0.7-0.6,1.6-0.9,2.5-0.9c1.6,0,2.1,0.8,2.1,2.2c-0.6,0-1.1,0-1.7,0c-1.6,0-4,0.7-4,2.8
		c0,1.8,1.3,2.7,3.1,2.7c1.1,0,2.1-0.5,2.7-1.3l0,0v1.1h1.5c-0.1-0.6-0.1-1.1-0.1-1.7v-3.5c0-2.3-1-3.5-3.4-3.5c-1,0-2,0.3-2.8,0.8
		L153.2,71.5z M157.8,74.8c0,1.2-0.9,2.2-2.1,2.2c-0.1,0-0.2,0-0.3,0c-0.8,0-1.5-0.6-1.6-1.4c0-1.5,2.1-1.7,3-1.7c0.3,0,0.7,0,1,0
		L157.8,74.8L157.8,74.8z"/>
	<rect x="162.3" y="65.5" class="st0" width="1.6" height="12.6"/>
	<path class="st0" d="M180.1,73.3c0,3.3-1.7,5-4.5,5s-4.5-1.8-4.5-5v-6.9h1.6V73c0,2.2,0.7,3.8,2.9,3.8s2.9-1.5,2.9-3.8v-6.7h1.7
		L180.1,73.3z"/>
	<path class="st0" d="M182.9,69.6h1.5v1.3l0,0c0.6-1,1.6-1.6,2.8-1.6c2.2,0,3.2,1.4,3.2,3.7v5.1h-1.6v-4.4c0-2-0.4-3-1.8-3.1
		c-1.8,0-2.6,1.4-2.6,3.5v4h-1.6L182.9,69.6z"/>
	<path class="st0" d="M195,67.7h-1.8v-1.8h1.8V67.7z M193.3,69.6h1.6v8.6h-1.6V69.6z"/>
	<polygon class="st0" points="201.6,78.1 199.7,78.1 196.6,69.6 198.4,69.6 200.6,76.5 200.7,76.5 203,69.6 204.6,69.6 	"/>
	<path class="st0" d="M212.7,76.2c-0.8,0.5-1.7,0.8-2.6,0.9c-1.5,0-2.8-1.2-2.8-2.8c0,0,0,0,0-0.1h6.1c0-2.8-0.9-4.8-3.8-4.8
		c-2.4,0-4,1.8-4,4.3c0,2.8,1.4,4.6,4.4,4.6c0.9,0,1.8-0.2,2.7-0.6L212.7,76.2L212.7,76.2z M207.2,73c0-1.3,1-2.3,2.3-2.4
		c1.2,0,2.2,1,2.2,2.1c0,0.1,0,0.2,0,0.2H207.2z"/>
	<path class="st0" d="M215.4,69.6h1.5v1.3l0,0c0.4-0.9,1.3-1.5,2.2-1.5c0.3,0,0.7,0,1,0.1v1.4c-0.3-0.1-0.6-0.2-0.9-0.2
		c-1.4,0-2.3,1.3-2.3,3.5v3.9h-1.6L215.4,69.6z"/>
	<path class="st0" d="M221.3,76.4c0.6,0.4,1.3,0.6,2,0.6c0.7,0,1.6-0.3,1.6-1.2c0-1.6-3.7-1.4-3.7-3.8c0-1.8,1.3-2.6,3-2.6
		c0.7,0,1.4,0.1,2,0.3l-0.1,1.4c-0.5-0.2-1.1-0.4-1.6-0.4c-0.8,0-1.5,0.3-1.5,1c0,1.7,3.7,1.2,3.7,4c0,1.5-1.2,2.7-2.7,2.7
		c-0.1,0-0.2,0-0.3,0c-0.8,0-1.6-0.1-2.3-0.5L221.3,76.4z"/>
	<path class="st0" d="M230.3,67.7h-1.8v-1.8h1.8V67.7z M228.6,69.6h1.6v8.6h-1.6V69.6z"/>
	<path class="st0" d="M237.6,70.8h-2.2v4.7c-0.1,0.7,0.4,1.4,1.2,1.5c0.1,0,0.1,0,0.2,0c0.4,0,0.8-0.1,1.1-0.3V78
		c-0.4,0.1-0.9,0.2-1.3,0.2c-1.6,0-2.6-0.8-2.6-2.5v-5h-1.9v-1.3h1.9v-2l1.6-0.5v2.5h2.2L237.6,70.8z"/>
	<path class="st0" d="M238.9,80.4c0.2,0.1,0.5,0.1,0.7,0.1c1.4,0,1.9-2,1.9-2.1c-0.1-0.3-0.2-0.6-0.3-0.9l-2.9-8h1.7l2.3,7.1l0,0
		l2.3-7.1h1.6l-3.1,8.7c-0.6,1.7-1.2,3.5-3.3,3.5c-0.4,0-0.7,0-1.1-0.1L238.9,80.4z"/>
	<path class="st0" d="M99.3,93.7c-0.1,2.4,1.8,4.4,4.2,4.5c0.1,0,0.1,0,0.2,0c2.4,0,4.3-1.9,4.3-4.3c0-0.1,0-0.1,0-0.2
		c0.1-2.3-1.6-4.3-4-4.5c-0.1,0-0.3,0-0.4,0c-2.3-0.1-4.3,1.7-4.3,4.1C99.3,93.4,99.3,93.5,99.3,93.7 M101,93.7c0-1.6,1-3.2,2.7-3.2
		s2.7,1.6,2.7,3.2s-0.8,3.2-2.7,3.2S101,95.2,101,93.7"/>
	<path class="st0" d="M111.1,90.7h-2v-1.3h2v-0.8c0-2.1,0.5-3.4,2.9-3.4c0.3,0,0.7,0,1,0.1l-0.1,1.3c-0.2-0.1-0.5-0.1-0.8-0.1
		c-1.4,0-1.5,0.9-1.5,2v0.9h2.3v1.3h-2.2v7.3h-1.6L111.1,90.7L111.1,90.7z"/>
	<path class="st0" d="M126.2,88c-0.7-0.3-1.4-0.5-2.2-0.5c-0.9,0-2,0.3-2,1.6c0,2.2,5,1.7,5,5.6c0,2.5-1.9,3.5-4.3,3.5
		c-0.8,0-1.6-0.2-2.4-0.5l0.2-1.6c0.8,0.3,1.6,0.5,2.4,0.6c1.2,0.1,2.2-0.7,2.3-1.9c0,0,0,0,0,0c0-2.6-5-1.9-5-5.5
		c0-2.1,1.6-3.2,3.7-3.2c0.8,0,1.7,0.1,2.5,0.4L126.2,88z"/>
	<path class="st0" d="M131,87.5h-1.8v-1.8h1.8V87.5z M129.3,89.4h1.6v8.6h-1.6V89.4z"/>
	<path class="st0" d="M133.8,89.4h1.5v1.3l0,0c0.6-1,1.6-1.6,2.8-1.6c2.2,0,3.2,1.4,3.2,3.7v5.1h-1.6v-4.4c0-2-0.4-3-1.8-3
		c-1.8,0-2.6,1.4-2.6,3.5v4h-1.6V89.4z"/>
	<path class="st0" d="M151.5,89.4H150v1.3l0,0c-0.5-1-1.7-1.6-2.8-1.5c-2.6,0-3.8,2.3-3.8,4.6s1.2,4.2,3.6,4.2
		c1.1,0,2.2-0.5,2.9-1.3l0,0v0.8c0,1.8-1,2.9-2.6,2.9c-1.1,0-2.1-0.3-3.1-0.8l-0.2,1.5c1,0.4,2,0.6,3.1,0.6c3,0,4.4-1.5,4.4-4.1
		L151.5,89.4L151.5,89.4z M147.4,96.7c-1.5,0-2.4-1.4-2.4-3c0-1.5,0.8-3.2,2.4-3.2c1.6,0,2.5,1.5,2.5,3.3
		C150.1,95.2,149,96.5,147.4,96.7C147.5,96.7,147.5,96.7,147.4,96.7"/>
	<path class="st0" d="M154.7,91.3c0.7-0.6,1.6-0.9,2.5-0.9c1.6,0,2.1,0.8,2.1,2.2c-0.6,0-1.1,0-1.7,0c-1.6,0-4,0.7-4,2.8
		c0,1.9,1.3,2.7,3.1,2.7c1,0,2-0.5,2.6-1.3l0,0V98h1.5c-0.1-0.6-0.1-1.1-0.1-1.7v-3.6c0-2.3-1-3.5-3.4-3.5c-1,0-2,0.3-2.8,0.8
		L154.7,91.3z M159.2,94.6c0.1,1.2-0.9,2.2-2.1,2.3c-0.1,0-0.2,0-0.3,0c-0.8,0-1.5-0.6-1.6-1.4c0-1.5,2.1-1.6,3-1.6c0.3,0,0.7,0,1,0
		L159.2,94.6L159.2,94.6z"/>
	<path class="st0" d="M163.4,101.4h1.6v-4.7l0,0c0.6,0.9,1.7,1.5,2.8,1.4c2.6,0,3.7-2.3,3.7-4.6s-1.2-4.3-3.7-4.3
		c-1.1,0-2.2,0.5-2.9,1.4l0,0v-1.2h-1.5V101.4z M169.9,93.6c0,1.3-0.7,3.2-2.4,3.2s-2.5-1.8-2.5-3.2c0-1.6,0.8-3.2,2.5-3.2
		C169.2,90.4,169.9,92.1,169.9,93.6"/>
	<path class="st0" d="M173.1,93.7c-0.1,2.4,1.8,4.4,4.2,4.5c0.1,0,0.1,0,0.2,0c2.4,0,4.3-1.9,4.3-4.3c0-0.1,0-0.1,0-0.2
		c0.1-2.3-1.6-4.3-4-4.5c-0.1,0-0.2,0-0.4,0c-2.3-0.1-4.3,1.8-4.4,4.1C173.1,93.4,173.1,93.5,173.1,93.7 M174.8,93.7
		c0-1.6,1-3.2,2.7-3.2c1.7,0,2.7,1.6,2.7,3.2s-0.8,3.2-2.7,3.2C175.6,96.9,174.8,95.2,174.8,93.7"/>
	<path class="st0" d="M183.9,89.4h1.5v1.3l0,0c0.4-0.9,1.3-1.5,2.2-1.5c0.3,0,0.7,0,1,0.1v1.4c-0.3-0.1-0.6-0.2-0.9-0.2
		c-1.4,0-2.3,1.3-2.3,3.5v3.9h-1.6L183.9,89.4z"/>
	<path class="st0" d="M196.9,96c-0.8,0.5-1.7,0.8-2.6,0.9c-1.5,0-2.8-1.3-2.8-2.8c0,0,0,0,0-0.1h6.1c0-2.8-0.9-4.8-3.8-4.8
		c-2.4,0-4,1.8-4,4.3c0,2.8,1.4,4.6,4.4,4.6c0.9,0,1.8-0.2,2.7-0.6V96z M191.4,92.8c0-1.3,1-2.3,2.3-2.4c1.2,0,2.1,1,2.1,2.2
		c0,0.1,0,0.1,0,0.2H191.4z"/>
	<path class="st0" d="M208,43.1c3.2,3,9.5,5.7,17.2,5.8c6.8,0.1,12.2-1.9,12.5-7.5c0.7-12.2-30.3-7.3-29.1-27.8
		C209.1,3.2,219.3-0.2,230.3,0c5.9,0.1,11.9,1.5,15.1,3.2v7.3c-4.2-2.8-9-4.3-14-4.6c-7-0.1-12.5,1.2-12.6,6.3
		c-0.2,10.6,31.1,8.1,29.9,28.4c-0.7,11.5-11.8,15-23.4,14.8c-6.7-0.1-13.2-1.4-17.3-3.6L208,43.1z"/>
	<path class="st0" d="M178.6,55.4c-14.4,0-22.7-6.5-22.7-19.9v-34h10.8v34c0,8.3,4,13.4,11.9,13.4s11.9-5,11.9-13.4v-34h10.8v34
		C201.3,48.9,193,55.4,178.6,55.4"/>
	<path class="st0" d="M138.3,1.6v38.3L113.5,4.3c-1.2-1.7-3.2-2.7-5.3-2.7H100v52.2h7.2V15.5L132,50.9c1.2,1.8,3.2,2.8,5.4,2.8h8.1
		V1.6H138.3z"/>
	<path class="st0" d="M17.6,8.6c-2.4,0-4.9,0.2-7.3,0.6v17.2c2.3-0.4,4.6-0.6,6.9-0.5c2.6,0,5.1,0.5,7.6,1.2v-17
		C22.4,9.2,20,8.7,17.6,8.6 M21.6,23.5c-1.1-0.5-2.4-0.7-3.6-0.8c-1.4,0-2.7,0.2-4,0.4c-0.4,0.1-0.8-0.1-1-0.5
		c-0.1-0.4,0.1-0.7,0.5-0.8c0,0,0,0,0.1,0c1.5-0.3,3-0.4,4.5-0.4c1.4,0.1,2.8,0.3,4.2,0.9c0.4,0.1,0.6,0.4,0.5,0.8c0,0,0,0.1,0,0.1
		C22.5,23.5,22,23.6,21.6,23.5 M21.7,20.1c-1.1-0.5-2.4-0.7-3.6-0.8c-1.4,0-2.7,0.2-4,0.4c-0.4,0.1-0.8-0.1-1-0.4
		c-0.1-0.4,0.1-0.7,0.5-0.9c0,0,0,0,0.1,0c1.5-0.3,3-0.4,4.5-0.4c1.4,0.1,2.8,0.3,4.2,0.9c0.4,0.1,0.6,0.5,0.5,0.8c0,0,0,0,0,0.1
		C22.5,20,22.1,20.2,21.7,20.1 M21.7,16.7c-1.1-0.5-2.4-0.7-3.6-0.8c-1.4,0-2.7,0.2-4,0.4c-0.4,0.1-0.8-0.1-1-0.4
		c-0.1-0.4,0.1-0.7,0.4-0.9c0,0,0.1,0,0.1,0c1.5-0.3,3-0.4,4.5-0.4c1.4,0.1,2.8,0.3,4.2,0.9c0.4,0.1,0.6,0.4,0.5,0.8
		c0,0,0,0.1,0,0.1C22.5,16.6,22.1,16.8,21.7,16.7 M21.7,13.3c-1.1-0.5-2.4-0.7-3.6-0.8c-1.4,0-2.7,0.2-4,0.4c-0.4,0.1-0.8-0.1-1-0.4
		c-0.1-0.4,0.1-0.7,0.4-0.9c0,0,0.1,0,0.1,0c1.5-0.3,3-0.4,4.5-0.4c1.4,0.1,2.8,0.3,4.2,0.9c0.4,0.1,0.6,0.4,0.5,0.8
		c0,0,0,0.1,0,0.1C22.5,13.2,22.1,13.4,21.7,13.3"/>
	<path class="st0" d="M33.1,8.6c-2.5,0-4.9,0.5-7.2,1.4v17.1c2.5-0.8,5.1-1.2,7.7-1.2c2.3,0,4.6,0.2,6.9,0.5V9.1
		C37.9,8.8,35.5,8.6,33.1,8.6 M36.7,23c-1.3-0.2-2.7-0.4-4.1-0.4c-1.2,0.1-2.4,0.3-3.6,0.8c-0.4,0.1-0.8,0-1-0.4
		c-0.1-0.3,0-0.7,0.4-0.9c0,0,0.1,0,0.1,0c1.3-0.5,2.7-0.8,4.1-0.8c1.5,0,3,0.2,4.5,0.5c0.4,0.1,0.6,0.4,0.5,0.8c0,0,0,0,0,0
		C37.6,23,37.1,23.2,36.7,23 M36.7,19.7c-1.3-0.2-2.7-0.4-4.1-0.4c-1.2,0.1-2.4,0.3-3.6,0.8c-0.4,0.1-0.8,0-1-0.4
		c-0.1-0.3,0-0.7,0.4-0.9c0,0,0.1,0,0.1,0c1.3-0.5,2.7-0.8,4.1-0.9c1.5,0,3,0.2,4.5,0.4c0.4,0.1,0.6,0.5,0.5,0.8c0,0,0,0,0,0
		C37.6,19.6,37.2,19.8,36.7,19.7 M36.8,16.2c-1.3-0.2-2.7-0.4-4.1-0.4c-1.2,0.1-2.4,0.3-3.6,0.8c-0.4,0.1-0.8,0-1-0.4
		c-0.1-0.3,0-0.7,0.4-0.9c0,0,0.1,0,0.1,0c1.3-0.5,2.7-0.8,4.1-0.9c1.5,0,3,0.2,4.5,0.4c0.4,0.1,0.6,0.4,0.5,0.8c0,0,0,0,0,0.1
		C37.6,16.2,37.2,16.4,36.8,16.2 M36.8,12.8c-1.3-0.2-2.7-0.4-4.1-0.4c-1.2,0.1-2.4,0.3-3.6,0.8c-0.4,0.1-0.8,0-1-0.4
		c-0.1-0.3,0-0.7,0.4-0.9c0,0,0.1,0,0.1,0c1.3-0.5,2.7-0.8,4.1-0.9c1.5,0,3,0.2,4.5,0.5c0.4,0.1,0.6,0.4,0.5,0.8c0,0,0,0,0,0.1
		C37.6,12.7,37.1,12.9,36.8,12.8"/>
	<path class="st0" d="M26.8,68.4L26.8,68.4L26.8,68.4L26.8,68.4"/>
	<path class="st0" d="M87.6,55.6v-54H0v54c0,0.1,0,0.3,0,0.4c0,2.6,0.6,16,11.4,33.2c11.8,18.8,31.3,24.5,32.1,24.8l0.3,0.1l0.3-0.1
		c0.8-0.2,20.4-6,32.2-24.7S87.6,56.2,87.6,55.6 M74.3,16.9c2.6,1.5,4.1,4.3,4.1,7.3c0,4.7-3.8,8.5-8.5,8.5c-4.7,0-8.5-3.8-8.5-8.5
		c0-1.8,0.5-3.5,1.6-4.9c0.4,0.3,0.8,0.6,1.2,1c-0.8,1.2-1.2,2.5-1.2,3.9c0,3.8,3.1,7,6.9,7c3.8,0,6.9-3.2,6.9-7
		c0-2.3-1.1-4.4-3-5.7C74.1,17.9,74.2,17.4,74.3,16.9 M65.6,28c0.6-1,1-2.1,1.1-3.2c0.5-0.1,1.1-0.3,1.6-0.4c0,1.7-0.6,3.4-1.6,4.7
		C66.3,28.8,65.9,28.4,65.6,28 M64.8,6.9c4.7,0,8.5,3.8,8.5,8.5c0,4.7-3.8,8.5-8.5,8.5l-0.8-0.1c0-0.5,0.1-1,0.3-1.5h0.5
		c3.8,0,6.9-3.2,6.9-7c0-3.8-3.1-7-6.9-7c-3.6,0-6.6,2.8-6.9,6.3c-0.5,0.1-1.1,0.3-1.6,0.5c0.1-4.6,3.8-8.3,8.4-8.3 M67,17.8
		c-0.4-0.4-0.7-0.8-1.2-1.1c1.3-0.7,2.7-1.1,4.1-1.1l0.8,0.1c0,0.5-0.1,1-0.3,1.5h-0.5C68.9,17.2,67.9,17.4,67,17.8 M59.8,15.6
		c3.3,0,6.3,2,7.7,5C67,20.8,66.5,21,66,21.1c-1.1-2.4-3.6-4-6.2-4c-3.8,0-6.9,3.2-6.9,7c0,3.8,3.1,7,6.9,7c1,0,2.1-0.2,3-0.7
		c0.4,0.4,0.7,0.8,1.2,1.1c-1.3,0.7-2.7,1.1-4.1,1.1c-4.7,0-8.5-3.8-8.5-8.5c0,0,0,0,0,0C51.3,19.5,55.1,15.7,59.8,15.6
		C59.8,15.7,59.8,15.7,59.8,15.6 M60.9,21.1c-0.2,0.5-0.3,1.1-0.4,1.6c-1.5-0.9-2.6-2.2-3.4-3.8c0.5-0.2,1-0.4,1.5-0.5
		C59.2,19.5,60,20.4,60.9,21.1 M9.1,27.8V8.2l0.5-0.1c2.6-0.4,5.3-0.7,8-0.7C20.2,7.5,22.8,8,25.3,9c2.5-1,5.1-1.5,7.8-1.5
		c2.7,0,5.4,0.2,8,0.7l0.5,0.1V31l-0.7-0.1c-2.4-0.5-4.9-0.7-7.3-0.6c-2.7,0.1-5.4,0.5-8,1.4l-0.2,0.1l-0.2-0.1
		c-2.6-0.9-5.3-1.3-8-1.4c-2.5,0-4.9,0.2-7.3,0.6L9.1,31L9.1,27.8L9.1,27.8z M74.5,87.9c-10.6,16.8-28.2,22.9-30.7,23.7
		c-2.4-0.8-20-6.9-30.6-23.7s-11-30.3-11-32.2V36.4h83.3v19.1c0,0,0,0.1,0,0.2C85.5,57.6,85.1,71.1,74.5,87.9"/>
	<path class="st0" d="M79.3,49.1c-2.9-1.6-6.7-0.5-10,0.7c-2,0.8-4,1.3-6.1,1.6c-2.1,0.3-9.3,1.3-11.6-0.6c-0.4-0.3-0.6-0.8-0.7-1.2
		c0-0.7,0.2-1.4,0.6-2c0.6-0.6,1.9-0.9,4.1-0.9l5.6,0.1c0.4,0.4,1.2,1.2,3.5,1.7c2.5,0.4,5.1,0.2,7.6-0.5c-0.4-0.1-0.8-0.3-1.2-0.5
		c-0.3-0.2-0.4-0.6-0.4-0.9c0.6,0.3,1.3,0.4,1.9,0.4c1.4,0,2.1-0.7,3.4-1.1c0.9-0.2,1.9-0.2,2.8-0.1c-0.7-0.8-1.7-1.4-2.7-1.7
		c-1-0.1-2-0.1-3,0.1c0.3-0.2,0.6-0.4,0.9-0.6c0.3-0.3,0.4-0.6,0.5-1c-1,0.4-2.1,0.6-3.2,0.5c-1.6-0.1-1.5-0.7-4.7-0.8
		c-1.9,0.1-3.8,0.8-5.2,2.1c-2.6-0.2-4.6-0.3-5.8-0.3c-3.2,0-5.1,0.5-6.3,1.8c-1,1.1-1.4,2.6-1.2,4c0.1,1.2,0.7,2.4,1.6,3.2
		c3,2.5,11.2,1.8,14.1,1.2c2.1-0.3,4.1-0.8,6.1-1.4h0.1c1.4-0.5,5.9-2,7.7-1c0.4,0.3,0.7,0.7,0.8,1.1c0.1,0.2,0.1,0.5,0.1,0.7
		c0,0.4-0.1,0.7-0.3,1c-1.7,2.1-8,2.4-10.8,2.6c-1.5-0.3-3-0.5-4.6-0.5c-1.6,0-3,0.1-4.4,0.2c-3.3,0.3-6.6,0.3-9.9-0.1
		c-1.9-0.2-3.7-0.6-5.6-1.1c-0.1-0.7-0.4-1.3-0.9-1.7c1.1,0.3,2.5-0.8,2.9-1.4c0-0.1-1.9-0.6-2.1-1.8c0,0,1.4,0.1,1.9-1.8
		c-1.4-0.8-0.9-1-1.6-2c-0.6-0.8-1.5-1.3-2.5-1.2c0.3,0,0.6-0.1,0.9-0.2c0.6-0.3,1-1.1,1.6-1.1c-1.2-1.9-4.4-2.1-5.7-1.7
		c0.3-0.4,0.9-0.9,0.9-1.5c-1.8,0.5-3.5-0.4-5.3-0.1c-1.3,0.1-2.4,1-2.8,2.3h-0.1C30,42,28.9,41.1,27.5,41c-1.8-0.3-3.5,0.6-5.3,0.1
		c0,0.6,0.5,1.1,0.9,1.5c-1.3-0.4-4.5-0.1-5.7,1.7c0.6,0,1,0.8,1.6,1.1c0.3,0.2,0.6,0.2,0.9,0.2c-1,0-1.9,0.4-2.4,1.2
		c-0.7,0.9-0.2,1.2-1.6,2c0.6,1.9,1.9,1.7,1.9,1.8c-0.1,1.2-2,1.8-2,1.8c0.4,0.6,1.8,1.8,2.9,1.4c-0.8,0.7-1.1,1.8-0.8,2.8
		c-1.3-0.9-2.5-2-3.5-3.2c-0.4-1.1-0.8-2.1-1.1-3.2l-0.3-1l-0.2-0.5c-0.4-1.6-0.8-3-1.6-3.1c-0.3-0.1-0.7-0.1-1.1-0.1
		c-0.2-0.4-0.6-0.7-1-0.9c-0.4-0.2-0.8-0.2-1.2-0.1c0.4,0.3,0.7,0.6,0.9,1C9,45.6,9,45.7,9,45.8c-0.1,0.1-0.3,0.2-0.4,0.3H8.6
		l-0.3,0.3H8.1c-0.4-0.1-0.9,0-1.2,0.1c0.3,0.2,0.6,0.3,0.8,0.6c-0.4,0.5-0.5,1-0.6,1.6c0,0.1,0,0.1,0,0.2c-0.4,0-0.8,0.1-1.1,0.4
		c0.4,0.1,0.8,0.3,1.2,0.6L7.3,50l-0.1,0.1C7,50.4,6.9,50.7,7,51c0.1,0.8,0.4,1.5,1,2l1.6,1.4c0.4,1.1,1,2.1,1.7,3
		c0.1,0.2,1,1.8,2,3.4c0.1,0.2,0.3,0.5,0.4,0.7c0.2,1,0.4,2.3,0.5,3.3c0.1,1.3,0.1,2.6,0,3.8c0.7,0,1.3-0.3,1.7-0.8
		c0.3,0.9,0.4,1.8,0.4,2.7c-0.1,0.8-0.2,1.7-0.3,2.5c0.7-0.4,1.4-0.8,2-1.4c0.4-0.4,0.8-0.9,1.1-1.4c0.9,0.6,3.6-0.4,5-0.9
		c0.3,0.6,0.7,1.2,1.1,1.8c0.2-0.8,1.1-1.2,1.5-1.9H27c-0.1,1.2,0.1,2.3,0.6,3.4c0.6,1.1,1.4,2.1,2.2,3.1c-0.3,1.5-0.9,4.2-1.5,6.5
		c-0.4,1.6-0.9,3.1-1.7,4.5c-1,0-2.7,0.1-3.3,0.1c-1.1-0.2-2.1,0.2-2.9,0.8c0,0-0.1,0.1-0.1,0.1c-0.5,0-0.9,0.2-1.3,0.5
		c-0.3,0.3-0.5,0.7-0.6,1.1c0.4-0.2,0.8-0.3,1.2-0.4h0.1l0,0c0,0.2,0.1,0.4,0.2,0.6c-0.1,0.1-0.2,0.1-0.2,0.2
		c-0.3,0.3-0.5,0.7-0.5,1.2c0.4-0.3,0.8-0.4,1.2-0.5c0.2,0.3,0.4,0.6,0.6,0.8L21,91.4c-0.3,0.3-0.4,0.8-0.4,1.2
		c0.3-0.2,0.7-0.4,1.1-0.5c0.2,0.2,0.3,0.4,0.5,0.5c0.8,0.7,2.8,0.3,5.3-0.4l1.6-0.4c1-0.1,1.8-0.7,2.3-1.5c0.2-0.3,0.3-0.7,0.4-1
		l0.1-0.4c0.3-1,0.8-1.9,1.3-2.7c0,0,0.7-1.1,1.6-2.6c0.8-0.7,1.8-1.5,2.5-2c1.1-0.7,3.3-1.9,3.3-1.9c-0.3-0.5-0.8-0.9-1.4-1.1
		c0.6-0.6,1.3-1.1,2-1.6c0.8-0.3,1.6-0.6,2.4-0.7c-0.3-0.6-0.7-1.1-1.3-1.5c0.4-0.1,0.7-0.3,1-0.5c1.3-1,2.9-1.3,4.5-0.8
		c0.1-0.7-0.2-1.5-0.9-1.8c0.6-0.3,1.2-0.5,1.9-0.6c0.4,0.7,0.9,1.5,1.1,1.8c1.1,1.5,2.3,3,3.5,4.4c0,0,0.1,0.1,0,0.2
		c-0.2,0.9-0.5,1.8-0.9,2.6l-0.3,0.7l-1.5,3.6c-0.7,0-2.6,0.1-3.3,0.1c-1-0.1-2,0.1-2.8,0.8c-0.1,0.1-0.1,0.2-0.2,0.2
		c-0.5,0.1-1,0.3-1.3,0.6c-0.3,0.3-0.5,0.7-0.5,1.1c0.4-0.2,0.8-0.4,1.2-0.5h0.2c0,0.2,0.1,0.4,0.2,0.6c-0.1,0.1-0.2,0.2-0.3,0.3
		c-0.3,0.3-0.4,0.8-0.4,1.2c0.4-0.3,0.8-0.5,1.2-0.6h0.1c0.1,0.2,0.3,0.4,0.4,0.6c0,0.1-0.1,0.1-0.1,0.2c-0.3,0.3-0.4,0.8-0.5,1.2
		c0.3-0.3,0.7-0.5,1.2-0.6c0.2,0.2,0.3,0.4,0.5,0.5c0.8,0.7,2.4,0.3,4.6-0.4l1.6-0.4c0.9-0.1,1.8-0.6,2.2-1.4l0.4-0.9
		c0.2-0.4,0.4-0.8,0.6-1.2c0.3-0.4,0.5-0.9,0.8-1.4c0.4-0.3,0.7-0.6,1-0.8c0.7-0.5,2.5-1.6,2.5-1.6c-0.2-0.4-0.6-0.8-1.1-0.9
		c0.5-0.5,1-1,1.6-1.3c0.6-0.3,1.2-0.5,1.9-0.6c-0.5-0.4-1-0.7-1.5-1c-0.3-0.1-0.6-0.2-0.9-0.2c-0.1-0.5-0.3-0.9-0.6-1.3
		c-0.6-1,0.3-3.1,1-4.3c0.6,0.8,1.3,1.6,2,2.4l3.9,4.3c-0.4,1.5-0.8,2.9-1.3,4.3c-0.5,1.2-1,2.5-1.6,3.6c-0.8,0-2.5,0.1-3.2,0.1
		c-1-0.1-2.1,0.1-2.9,0.8c-0.1,0.1-0.2,0.2-0.2,0.3c-0.4,0.1-0.9,0.3-1.2,0.6c-0.3,0.3-0.5,0.7-0.5,1.2c0.3-0.3,0.7-0.5,1.2-0.5h0.1
		c0.1,0.2,0.1,0.4,0.2,0.6c-0.1,0.1-0.2,0.2-0.3,0.3c-0.3,0.3-0.4,0.8-0.4,1.2c0.4-0.3,0.8-0.5,1.2-0.6h0c0.2,0.3,0.4,0.5,0.5,0.8
		l0,0c-0.3,0.3-0.4,0.8-0.4,1.2c0.3-0.2,0.6-0.4,1-0.6c0.1,0.1,0.3,0.3,0.4,0.4c0.8,0.7,2.4,0.3,4.7-0.4l1.6-0.4
		c0.9-0.1,1.8-0.6,2.2-1.4c0.1-0.4,1.1-2.7,1.4-3.3c0.5-1.2,1-2.4,1.6-3.6c0.2-0.2,0.5-0.4,0.7-0.6c0.9-0.6,2.8-1.7,2.8-1.7
		c-0.2-0.4-0.6-0.8-1.1-0.9c0.5-0.4,1-0.8,1.5-1.2c0.6-0.3,1.3-0.6,2-0.7c-0.5-0.4-1-0.7-1.5-1c-0.4-0.2-0.9-0.3-1.3-0.3
		c-0.1-0.4-0.4-0.8-0.8-0.9c-0.6-0.3-1.2-0.8-1.6-1.3c-1-1.1-1.1-3.3-1.1-5.5c0-0.5,0-1,0-1.4v-2.1c0-1.8-0.3-3.6-0.8-5.3
		c3.2-0.3,9.1-0.9,11.5-3.9c0.7-0.8,1.1-1.9,1.1-3c0-0.5-0.1-1.1-0.2-1.6C81.3,50.7,80.5,49.7,79.3,49.1 M19.5,69.6
		c-0.8-0.8-3.7-5.8-5.6-9.2c-1.4-2.5-2-3.4-2.1-3.6C11.2,56,10.6,55,10.2,54v-0.1l-1.7-1.5c-0.5-0.4-0.7-1-0.7-1.6
		c0.2,0.1,0.4,0.1,0.7,0C9.1,50.5,9.1,50,9.1,50c-0.3-0.4-0.7-0.7-1.2-0.9c-0.1-0.4,0-0.9,0.2-1.3c0,0.1,0.1,0.3,0.1,0.4
		c0.2,0.2,0.5,0.3,0.8,0.2c0.4,0,0.7-0.3,0.8-0.6c-0.2-0.4-0.5-0.7-0.8-1L9,46.8h0.1c0.1-0.1,0.1-0.1,0.2-0.1
		c0.1,0.1,0.3,0.1,0.5,0.1c0.8,0,0.9-0.4,0.9-0.4l0,0c0.2,0,0.3,0,0.5,0.1c0.2,0.1,0.6,1,1,2.6l0.2,0.5l0.3,1
		c0.3,1.2,0.7,2.4,1.2,3.5c1.3,1.5,2.8,2.9,4.5,4l0.2,0.8c0.3,0.9,1.4,2.6,1.8,3.5c0.5,0.9,0.6,2,0.4,3c1,0,2-0.5,2.7-1.3
		c0.3,1.7-0.3,2.8,0.4,4.8C21.7,69.5,19.8,69.9,19.5,69.6 M27.6,61c-0.2-0.7-0.4-1.3-0.5-2c-0.1,0-1.4-0.9-1.4-0.9s0-2.6,0-2.6
		s-3.2-4-3.2-3.9s1.1-2,1.1-2l0,0c-0.5-0.4-1.7-1.4-1.1-2.6s2.2-0.8,2.7-0.6c0.1-0.1,3.5-1.6,3.6-1.6s1.3,1.6,1.3,1.6
		s1.4-1.6,1.3-1.6s3.5,1.5,3.6,1.6c0.5-0.2,2-0.7,2.7,0.6s-0.6,2.2-1.1,2.6l0,0c0,0,1.1,2,1.1,2s-3.2,3.9-3.2,3.9V58
		c0,0-1.3,0.9-1.4,0.9c-0.1,0.7-0.3,1.3-0.5,2c-0.8,0.4-1.6,0.6-2.5,0.6h-0.1C29.2,61.5,28.3,61.3,27.6,61 M58.5,75.5
		c0,0.5,0.1,0.9,0.3,1.3c0.2,0.3,0.4,0.6,0.5,1c0,0.3-0.2,0.5-0.6,0.9c-0.8,1-1.4,2.1-1.8,3.3c-0.6,1.2-1.2,2.3-1.7,3.2
		c-0.3,0.4-0.5,0.9-0.6,1.4l-0.4,0.8c-0.4,0.6-1,1-1.7,1.1l-1.7,0.4c-1.1,0.3-3,0.9-3.7,0.6c0.2-0.1,0.3-0.3,0.3-0.5
		c0.1-0.3,0-0.7-0.2-1c-0.4,0-0.8,0.1-1.2,0.3l-0.1-0.2c0.2-0.2,0.3-0.4,0.4-0.7c0.1-0.3,0-0.6-0.2-0.9c-0.3,0-0.7,0.1-1,0.2
		c0,0,0-0.1-0.1-0.1c0.2-0.1,0.4-0.3,0.4-0.5c0.1-0.2,0.1-0.4,0-0.7c0.6-0.4,1.4-0.6,2.1-0.5c0.9,0,3.5-0.1,3.6-0.1h0.2l1.7-4
		l0.3-0.7c0.5-0.9,0.8-1.9,1-2.9c0-0.3-0.1-0.5-0.3-0.7c-1.2-1.3-2.4-2.8-3.4-4.3c-0.2-0.3-0.6-0.9-0.9-1.5c1.2-0.2,2.5-0.1,3.6,0.2
		c0-0.6-0.3-1.2-0.8-1.5c1.7-0.5,3.4-0.7,5.1-0.6c0.1,0.1,0.1,0.2,0.2,0.3c0.4,0.5,0.9,1,1.4,1.3c0.1,0.1,0.2,0.1,0.3,0.2l0.5,0.6
		C59.1,72.6,58.6,74,58.5,75.5 M80.1,56.1c-2.3,2.8-8.4,3.4-11.4,3.6h-0.5l0.2,0.5c0.6,1.8,0.8,3.7,0.9,5.6v2.1
		c0,2.7-0.1,5.8,1.3,7.5c0.5,0.6,1.1,1.2,1.9,1.5c0.3,0.2,0.4,0.2,0.4,0.6s-0.2,0.7-0.6,1.2l-0.5,0.8c-1.3,2.3-2.4,4.8-3.4,7.2
		c-0.3,0.8-1.2,3-1.4,3.2c-0.3,0.6-1,1.1-1.7,1.2l-1.7,0.4c-1.1,0.4-2.3,0.6-3.5,0.7c0.2-0.1,0.3-0.3,0.4-0.6c0.1-0.3,0-0.7-0.2-0.9
		c-0.5,0.1-1,0.2-1.4,0.4l-0.2-0.2c0.2-0.1,0.4-0.3,0.4-0.6c0.1-0.3,0-0.7-0.2-1c-0.3,0-0.7,0.1-1,0.2c0,0,0-0.1-0.1-0.1
		c0.2-0.1,0.4-0.3,0.5-0.5c0.1-0.3,0.1-0.5,0-0.8c0.6-0.3,1.3-0.5,2-0.4c0.7,0,2.7-0.1,3.5-0.1h0.2l0.1-0.2c0.7-1.3,1.3-2.6,1.8-3.9
		c0.5-1.5,1-3,1.4-4.6v-0.2l-4.2-4.6c-0.8-0.9-1.6-1.8-2.2-2.8l0,0l0,0c-0.5-0.6-0.9-1.2-1.4-1.9L59,68.8c-0.5-0.9-1.1-1.7-1.8-2.5
		c-0.6-0.6-1.3-1.1-2-1.6l-0.6,0.5l1,1.7l-16.9,5l0.1,0.4c0.2,0.7,0.3,1.3,0.4,2c0,0,0,0.1,0,0.1c-0.2,0.7-5.1,8.7-6.8,11.4
		c-0.6,0.9-1.1,1.9-1.4,2.9l-0.2,0.5c-0.1,0.3-0.2,0.6-0.3,0.9c-0.4,0.6-1,0.9-1.7,1l-1.6,0.4c-1.3,0.3-3.6,1-4.4,0.7
		c0.2-0.1,0.3-0.2,0.3-0.4c0.1-0.4,0.1-0.8-0.1-1.1c-0.5,0.1-0.9,0.2-1.3,0.3l-0.2-0.2c0.2-0.1,0.3-0.2,0.3-0.4
		c0.1-0.3,0.1-0.7,0-1.1c-0.4,0-0.8,0.1-1.2,0.2l-0.1-0.2c0.2-0.1,0.4-0.2,0.5-0.4c0.1-0.2,0.1-0.5,0.1-0.8c0.6-0.3,1.4-0.5,2.1-0.4
		c0.7,0,2.7-0.1,3.6-0.1h0.2l0.1-0.2c0.8-1.5,1.4-3.1,1.8-4.8c0.6-2.2,1.2-4.8,1.5-6.3c1-1,1.9-2.2,2.6-3.4c1.1-2.2,0.3-2.9,0.8-4.2
		c-0.1,1.3,1.4,1.6,1.7,2.7c2.7-3.7,1.4-5,1.8-7.3c0.7,0.8,1.6,1.3,2.7,1.3c-0.2-1,0-2.1,0.4-3c0.4-0.8,1.5-2.5,1.8-3.5
		c0.3-0.7,0.5-1.5,0.7-2.2c1.8,0.5,3.6,0.8,5.5,1c3.3,0.4,6.7,0.4,10.1,0.1c1.4-0.1,2.8-0.2,4.4-0.2c1.5,0,3,0.2,4.5,0.5h0.1
		c3.3-0.2,9.5-0.5,11.4-2.9c0.5-0.7,0.7-1.6,0.4-2.4c-0.1-0.7-0.6-1.3-1.2-1.6c-2.2-1.1-6.6,0.4-8.3,0.9h-0.1
		c-1.9,0.7-3.9,1.2-5.9,1.5c-3.3,0.6-10.8,1.1-13.4-1.1c-0.8-0.6-1.3-1.6-1.4-2.6c-0.2-1.2,0.2-2.5,1-3.4c1-1.1,2.7-1.5,5.7-1.5
		c1.2,0,3.2,0.1,5.8,0.3l0.4,0.5l-0.4,0.4l-5.8-0.1c-2.5,0-3.9,0.4-4.7,1.2c-0.6,0.8-0.8,1.7-0.8,2.6c0.1,0.7,0.5,1.3,1,1.8
		c2.5,2,9.4,1.2,12.2,0.8c2.1-0.3,4.2-0.8,6.2-1.6c3.2-1.1,6.8-2.1,9.4-0.7c1,0.4,1.7,1.3,1.9,2.3C81.3,53.5,81,55,80.1,56.1"/>
	<polygon class="st0" points="28.5,49.7 28.4,51.3 25.5,49.7 	"/>
	<path class="st0" d="M32.2,51.4c0,0.1,0.5,4,0.5,4l-2.2,1.2c0,0.1,0,1.3,0,1.4c0.3,0.2,0.6,0.4,0.9,0.5c0.5,0.2,1,0.2,1.4,0.1h0.2
		l-0.2,0.5h-0.1c-0.5,0.1-1,0.1-1.5,0c-0.3-0.1-0.7-0.2-1-0.5h-0.3c-0.3,0.2-0.6,0.4-1,0.5c-0.5,0.1-1,0.1-1.5,0h-0.1l-0.2-0.5h0.2
		c0.5,0.1,1,0.1,1.4-0.1c0.3-0.1,0.6-0.3,0.9-0.5v-1.5L27.5,55h4v-5.3h3.1H35L32.2,51.4"/>
	<path class="st0" d="M374,53.5c-14.1,0-25.5-11.4-25.5-25.5c-0.1-14,11.1-25.5,25.2-25.7c0.1,0,0.2,0,0.4,0
		c14.1,0,25.5,11.4,25.5,25.5C399.5,42,388.1,53.5,374,53.5z M374,4.6c-12.9,0.1-23.2,10.5-23.2,23.4c0,12.8,10.4,23.2,23.2,23.2
		c12.9,0,23.3-10.4,23.4-23.2C397.2,15.1,386.8,4.7,374,4.6z"/>
	<path class="st0" d="M401.2,53.5c-0.2,0-0.3,0-0.4-0.1c-0.6-0.3-0.9-1-0.6-1.6l10-20.6c0.2-0.4,0.5-0.7,1-0.7h14.2
		c0.6,0,1.1,0.5,1.2,1.2c0,0.6-0.5,1.1-1.2,1.2H412l-9.7,19.9C402.2,53.1,401.7,53.5,401.2,53.5z"/>
	<path class="st0" d="M449.4,53.5c-0.4,0-0.8-0.3-1-0.7L424.6,3.9c-0.3-0.6,0-1.3,0.6-1.6c0.6-0.3,1.3,0,1.6,0.6l23.8,48.9
		c0.3,0.6,0,1.3-0.6,1.6C449.8,53.5,449.6,53.5,449.4,53.5z"/>
	<path class="st0" d="M297.8,53.5c-0.6,0-1.1-0.5-1.2-1.2V3.5c0-0.6,0.5-1.1,1.2-1.2h17.7c13.9,0.2,25.1,11.6,24.9,25.5
		c0,13.9-11.1,25.3-24.9,25.5h-17.7V53.5z M299,51.2h16.7c12.7-0.3,22.7-10.7,22.6-23.4c0.1-12.6-10-23-22.6-23.2H299V51.2z"/>
	<path class="st0" d="M387.7,71.3v15.6c0,0.6,0.4,1,1,1s1-0.4,1-1V71.3h4.6c0.5,0,1-0.4,1-0.9c0,0,0-0.1,0-0.1c0-0.6-0.4-1-1-1
		h-11.1c-0.6,0-1,0.4-1,1s0.4,1,1,1H387.7z"/>
	<path class="st0" d="M323.2,78.4h-0.7l-0.1,0.1v1l0,0v0.8l0,0l5.4,7.5c0.2,0.3,0.5,0.4,0.8,0.4c0.3,0,0.4,0,0.5-0.1
		c0.4-0.3,0.5-0.9,0.3-1.4L325,80c2.3-0.7,3.8-2.9,3.7-5.3c0-3-2.5-5.5-5.5-5.5h-5c-0.5,0-1,0.4-1,0.9c0,0,0,0.1,0,0.1v16.6
		c0,0.6,0.4,1,1,1c0.6,0,1-0.4,1-1V71.3h4c2,0,3.6,1.6,3.6,3.5c0,0,0,0,0,0.1C326.7,76.8,325.1,78.3,323.2,78.4z"/>
	<path class="st0" d="M309.5,87.9h0.4c0.5-0.1,0.7-0.6,0.6-1.1c0-0.1,0-0.1-0.1-0.2l-6.1-16.6c-0.1-0.5-0.6-0.7-1.1-0.6
		c-0.1,0-0.1,0-0.2,0.1c-0.5,0.1-0.8,0.6-0.6,1.1c0,0.1,0,0.1,0.1,0.2l3,8.4h-5.5c-0.5-0.1-1,0.2-1.1,0.7c0,0,0,0,0,0l-2.5,6.9
		c-0.2,0.5,0.1,1,0.6,1.2h0.4c0.5,0,0.9-0.3,1-0.7l2.4-6.2h5.8l2.4,6.2C308.8,87.6,309.1,87.9,309.5,87.9z"/>
	<path class="st0" d="M337.7,76.6v-1.4c0-2.2,1.8-4,4-4c1.8,0,3.4,1.2,3.9,2.9c0.1,0.5,0.7,0.8,1.2,0.7c0,0,0,0,0,0
		c0.5-0.1,0.8-0.7,0.7-1.2c0,0,0,0,0,0c-0.7-2.6-3.1-4.4-5.8-4.4c-3.4,0-6.1,2.7-6.1,6.1v6.6c0,3.3,2.7,6.1,6.1,6.1
		c2.7,0,5.1-1.8,5.8-4.4c0.2-0.5-0.1-1.1-0.7-1.2c0,0,0,0,0,0c-0.5-0.2-1.1,0.2-1.2,0.7c0,0,0,0,0,0c-0.5,1.8-2.1,3-3.9,2.9
		c-2.2,0-4-1.8-4-4V76.6L337.7,76.6z"/>
	<path class="st0" d="M365.5,87.9c0.6,0,1-0.4,1-1V70.3c0-0.6-0.4-1-1-1s-1,0.4-1,1v7.1h-7.8v-7.1c0-0.6-0.4-1-1-1
		c-0.5,0-1,0.4-1,0.9c0,0,0,0.1,0,0.1v16.6c0,0.5,0.4,1,0.9,1c0,0,0.1,0,0.1,0c0.6,0,1-0.4,1-1v-7.6h7.8v7.6
		C364.4,87.5,365,87.9,365.5,87.9z"/>
	<path class="st0" d="M373.8,70.2v16.6c0,0.6,0.4,1,1,1s1-0.4,1-1V70.2c0-0.5-0.4-1-0.9-1c0,0-0.1,0-0.1,0
		C374.3,69.2,373.8,69.6,373.8,70.2z"/>
	<path class="st0" d="M420.6,76.6v-1.4c0-2.2,1.8-4,4-4c1.8,0,3.4,1.2,3.9,2.9c0.1,0.5,0.7,0.8,1.2,0.7c0,0,0,0,0,0
		c0.5-0.1,0.8-0.7,0.7-1.2c0,0,0,0,0,0c-0.7-2.6-3.1-4.4-5.8-4.4c-3.4,0-6.1,2.7-6.1,6.1v6.6c0,3.3,2.7,6.1,6.1,6.1
		c2.7,0,5.1-1.8,5.8-4.4c0.2-0.5-0.1-1.1-0.7-1.2c0,0,0,0,0,0c-0.5-0.2-1.1,0.2-1.2,0.7c0,0,0,0,0,0c-0.5,1.8-2.1,3-3.9,2.9
		c-2.2,0-4-1.8-4-4V76.6L420.6,76.6z"/>
	<path class="st0" d="M466.7,69.2c-0.5,0-1,0.4-1,0.9c0,0,0,0.1,0,0.1v11.1c0,2.5-2.1,4.5-4.6,4.6c-2.5,0-4.5-2.1-4.6-4.6V70.2
		c0-0.5-0.4-1-0.9-1c0,0-0.1,0-0.1,0c-0.5,0-1,0.4-1,0.9c0,0,0,0.1,0,0.1v11.1c0,3.7,3,6.6,6.6,6.7c3.7,0,6.6-3,6.6-6.6c0,0,0,0,0,0
		V70.2C467.7,69.7,467.2,69.3,466.7,69.2z"/>
	<path class="st0" d="M481.6,80c2.3-0.7,3.8-2.9,3.7-5.3c0-3.1-2.5-5.5-5.5-5.5h-5c-0.5,0-1,0.4-1,0.9c0,0,0,0.1,0,0.1v16.6
		c0,0.6,0.4,1,1,1s1-0.4,1-1V71.3h4c2,0,3.6,1.6,3.6,3.5c0,0,0,0,0,0.1c0,2-1.6,3.6-3.5,3.6c0,0,0,0-0.1,0h-0.7l-0.1,0.1v1l0,0v0.8
		l0,0l5.4,7.5c0.2,0.3,0.5,0.4,0.8,0.4c0.3,0,0.4,0,0.5-0.1c0.4-0.3,0.5-0.9,0.3-1.4L481.6,80z"/>
	<path class="st0" d="M501.7,85.8h-7.5v-6.5h5.4c0.6,0,1-0.4,1-1s-0.4-1-1-1h-5.4v-6h7.5c0.6,0,1-0.4,1-1s-0.4-1-1-1h-8.4
		c-0.5,0-1,0.4-1,0.9c0,0,0,0.1,0,0.1v16.6c0,0.5,0.4,1,0.9,1c0,0,0.1,0,0.1,0h8.4c0.5,0,1-0.4,1-0.9c0,0,0-0.1,0-0.1
		C502.8,86.2,502.4,85.8,501.7,85.8z"/>
	<path class="st0" d="M447.9,69.2h-11.1c-0.5,0-1,0.4-1,0.9c0,0,0,0.1,0,0.1c0,0.6,0.4,1,1,1h4.6v15.6c0,0.5,0.4,1,0.9,1
		c0,0,0.1,0,0.1,0c0.6,0,1-0.4,1-1V71.3h4.6c0.6,0,1-0.4,1-1c0.1-0.5-0.2-1-0.7-1.1C448.1,69.2,448,69.2,447.9,69.2z"/>
	<path class="st0" d="M411.2,71.3c0.5,0,1-0.4,1-0.9c0,0,0-0.1,0-0.1c0-0.6-0.4-1-1-1h-8.4c-0.6,0-1,0.4-1,1v16.6c0,0.6,0.4,1,1,1
		h8.4c0.6,0,1-0.4,1-1c0-0.5-0.4-1-0.9-1c0,0-0.1,0-0.1,0h-7.5v-6.5h5.4c0.5,0,1-0.4,1-0.9c0,0,0-0.1,0-0.1c0-0.5-0.4-1-0.9-1
		c0,0-0.1,0-0.1,0h-5.4v-6L411.2,71.3L411.2,71.3z"/>
	<path class="st0" d="M661.5,62.3c-3.3-3.5-5-8.2-5-14.1V10.1h6.5v36.6c0,5.3,1.2,9.3,3.5,12.1c2.3,2.8,5.7,4.2,10.2,4.2
		c4.7,0,8.2-1.4,10.5-4.3s3.5-6.9,3.5-12V10.1h4.8v38.1c0,5.9-1.6,10.6-4.9,14.1c-3.2,3.5-8.1,5.2-14.6,5.2
		C669.7,67.5,664.9,65.7,661.5,62.3z"/>
	<path class="st0" d="M713.7,59.9c-4.4-5.1-6.5-12.1-6.5-21c-0.1-5.4,0.9-10.7,3-15.6c1.8-4.2,4.7-7.8,8.5-10.3
		c3.8-2.5,8.3-3.7,12.8-3.6c2.6,0,5.2,0.3,7.7,1c2.2,0.6,4.3,1.4,6.3,2.4c0.9,0.4,1.8,0.9,2.6,1.4l-0.8,4.2
		c-0.8-0.5-1.7-0.9-2.5-1.3c-1.9-0.9-3.9-1.6-5.9-2.2c-2.2-0.7-4.4-1-6.7-1c-5.2-0.2-10.2,2.2-13.2,6.3c-3.2,4.3-4.8,10.5-4.8,18.7
		c0,8.1,1.6,14.1,4.9,18.3c3.2,4.1,7.8,6.2,13.6,6.2c2.8,0.1,5.6-0.6,8.1-1.9c2-1.1,3.9-2.4,5.5-4.1c0.8-0.7,1.5-1.6,2-2.5l2.4,2.7
		c0,0.3-0.8,1.3-2.3,3c-1.9,2-4.1,3.6-6.5,4.8c-3.1,1.6-6.6,2.4-10.1,2.3C724.1,67.5,718,64.9,713.7,59.9z"/>
	<path class="st0" d="M760.7,10.1h17.2c8.1,0,14.4,2.4,18.9,7.4c4.5,4.9,6.7,11.9,6.7,21.1c0,9.1-2.2,16.1-6.7,20.9
		s-10.8,7.2-19,7.2h-17.2V10.1z M778,62.4c12.3,0,18.4-8,18.4-23.9c0-16.2-6.2-24.3-18.5-24.3h-10.6v48.2L778,62.4z"/>
	<path class="st0" d="M815.8,66.6V10.1h6.6v52.4h25.1v4.2L815.8,66.6z"/>
	<path class="st0" d="M660.2,83.3c0.3,0,0.6-0.1,0.9-0.2c0.3-0.1,0.5-0.3,0.7-0.5c0.2-0.2,0.3-0.5,0.4-0.7c0.1-0.3,0.2-0.7,0.1-1
		v-5.6h1.7V81c0,0.5-0.1,1.1-0.3,1.6c-0.3,0.9-1.1,1.7-2,2c-1,0.4-2.2,0.4-3.2,0c-0.5-0.2-0.9-0.4-1.2-0.8c-0.3-0.3-0.6-0.8-0.8-1.2
		c-0.2-0.5-0.3-1-0.3-1.6v-5.6h1.7V81c0,0.3,0,0.7,0.1,1c0.1,0.3,0.2,0.5,0.4,0.7c0.2,0.2,0.4,0.4,0.7,0.5
		C659.5,83.3,659.9,83.3,660.2,83.3z"/>
	<path class="st0" d="M668.3,81.1v3.6h-1.7v-9.3h2.8c0.5,0,1.1,0.1,1.6,0.2c0.4,0.1,0.8,0.3,1.1,0.6c0.3,0.2,0.5,0.5,0.6,0.8
		c0.1,0.3,0.2,0.7,0.2,1.1c0,0.3,0,0.6-0.1,0.9c-0.1,0.3-0.2,0.5-0.4,0.8c-0.2,0.2-0.4,0.4-0.6,0.6c-0.3,0.2-0.6,0.3-0.9,0.4
		c0.2,0.1,0.4,0.3,0.6,0.5l2.3,3.4h-1.5c-0.3,0-0.5-0.1-0.7-0.3l-2-2.9c-0.1-0.1-0.1-0.2-0.2-0.2c-0.1-0.1-0.3-0.1-0.4-0.1
		L668.3,81.1z M668.3,79.8h1.1c0.3,0,0.6,0,0.8-0.1c0.2-0.1,0.4-0.2,0.6-0.3c0.2-0.1,0.3-0.3,0.3-0.5c0.1-0.2,0.1-0.4,0.1-0.7
		c0-0.4-0.1-0.8-0.5-1.1c-0.4-0.3-0.9-0.4-1.4-0.4h-1.1V79.8z"/>
	<path class="st0" d="M675.6,84.7v-9.3h3.2c0.5,0,1,0,1.5,0.2c0.4,0.1,0.7,0.3,1.1,0.5c0.3,0.2,0.5,0.5,0.6,0.8
		c0.1,0.3,0.2,0.7,0.2,1c0,0.2,0,0.4-0.1,0.6c-0.1,0.2-0.2,0.4-0.3,0.6c-0.1,0.2-0.3,0.3-0.5,0.5c-0.2,0.1-0.5,0.3-0.7,0.4
		c1.3,0.3,1.9,1,1.9,2.1c0,0.4-0.1,0.7-0.2,1.1c-0.1,0.3-0.4,0.6-0.7,0.9c-0.3,0.3-0.7,0.5-1.1,0.6c-0.5,0.1-1,0.2-1.4,0.2
		L675.6,84.7z M677.3,79.4h1.4c0.5,0,0.9-0.1,1.3-0.3c0.3-0.2,0.5-0.6,0.5-1c0-0.4-0.1-0.7-0.4-1c-0.4-0.2-0.8-0.3-1.3-0.3h-1.5
		L677.3,79.4z M677.3,80.6v2.7h1.8c0.3,0,0.5,0,0.8-0.1c0.2-0.1,0.4-0.2,0.5-0.3c0.1-0.1,0.2-0.3,0.3-0.4c0.1-0.2,0.1-0.4,0.1-0.6
		c0-0.2,0-0.4-0.1-0.5c-0.1-0.2-0.2-0.3-0.3-0.4c-0.2-0.1-0.3-0.2-0.5-0.3c-0.3-0.1-0.5-0.1-0.8-0.1L677.3,80.6z"/>
	<path class="st0" d="M692.8,84.7h-1.3c-0.1,0-0.3,0-0.4-0.1c-0.1-0.1-0.2-0.2-0.2-0.3l-0.7-1.9h-3.9l-0.7,1.9
		c0,0.1-0.1,0.2-0.2,0.3c-0.1,0.1-0.2,0.1-0.4,0.1h-1.3l3.7-9.3h1.8L692.8,84.7z M686.8,81.2h3l-1.1-3.1c0-0.1-0.1-0.3-0.2-0.5
		s-0.1-0.4-0.2-0.6c-0.1,0.2-0.1,0.4-0.2,0.6l-0.2,0.5L686.8,81.2z"/>
	<path class="st0" d="M695.6,75.4h0.1c0,0,0.1,0,0.1,0.1c0,0,0.1,0.1,0.1,0.1l4.9,6.2c0-0.2,0-0.3,0-0.4s0-0.3,0-0.4v-5.6h1.5v9.3
		h-0.9c-0.1,0-0.2,0-0.3-0.1c-0.1-0.1-0.2-0.1-0.3-0.2l-4.9-6.2c0,0.1,0,0.3,0,0.4c0,0.1,0,0.2,0,0.4v5.7h-1.5v-9.3L695.6,75.4
		L695.6,75.4z"/>
	<path class="st0" d="M714.5,82.5c0.1,0,0.2,0,0.2,0.1l0.7,0.7c-0.4,0.5-0.8,0.8-1.4,1.1c-0.6,0.3-1.3,0.4-2,0.4
		c-0.6,0-1.3-0.1-1.9-0.4c-0.5-0.2-1-0.6-1.4-1c-0.4-0.4-0.7-1-0.9-1.5c-0.2-0.6-0.3-1.3-0.3-1.9c0-0.7,0.1-1.3,0.3-1.9
		c0.2-0.6,0.6-1.1,1-1.5c0.4-0.4,0.9-0.8,1.5-1c0.6-0.2,1.3-0.4,1.9-0.3c0.6,0,1.2,0.1,1.8,0.3c0.5,0.2,0.9,0.5,1.3,0.9l-0.6,0.8
		c0,0.1-0.1,0.1-0.1,0.1c-0.1,0-0.1,0.1-0.2,0.1c-0.1,0-0.2-0.1-0.3-0.1l-0.4-0.2c-0.2-0.1-0.4-0.2-0.6-0.2
		c-0.7-0.2-1.5-0.1-2.1,0.1c-0.4,0.1-0.7,0.4-0.9,0.7c-0.3,0.3-0.5,0.6-0.6,1c-0.2,0.4-0.2,0.9-0.2,1.4c0,0.5,0.1,0.9,0.2,1.4
		c0.1,0.4,0.3,0.7,0.6,1c0.3,0.3,0.6,0.5,0.9,0.6c0.3,0.2,0.7,0.2,1.1,0.2c0.2,0,0.4,0,0.6,0c0.2,0,0.4-0.1,0.5-0.1
		c0.2,0,0.3-0.1,0.5-0.2c0.2-0.1,0.3-0.2,0.4-0.3c0,0,0.1-0.1,0.1-0.1C714.4,82.5,714.4,82.5,714.5,82.5z"/>
	<path class="st0" d="M719.1,83.3h3.7v1.4h-5.5v-9.3h1.7V83.3z"/>
	<path class="st0" d="M726.7,84.7H725v-9.3h1.7V84.7z"/>
	<path class="st0" d="M734.3,81.3l0.2,0.4l0.2-0.5l0.2-0.4l2.8-5.2c0-0.1,0.1-0.1,0.1-0.2c0,0,0.1-0.1,0.1-0.1h0.2h1.5v9.3H738v-6.4
		c0-0.1,0-0.3,0-0.4l-2.8,5.3c-0.1,0.1-0.1,0.2-0.2,0.3c-0.1,0.1-0.2,0.1-0.4,0.1h-0.2c-0.1,0-0.2,0-0.4-0.1
		c-0.1-0.1-0.2-0.2-0.2-0.3l-2.8-5.3c0,0.1,0,0.3,0,0.4v6.4h-1.5v-9.3h1.5c0,0,0.1,0,0.2,0c0,0,0.1,0.1,0.1,0.1c0,0,0.1,0.1,0.1,0.2
		l2.8,5.2C734.1,81,734.2,81.1,734.3,81.3z"/>
	<path class="st0" d="M750.3,84.7h-1.3c-0.1,0-0.3,0-0.4-0.1c-0.1-0.1-0.2-0.2-0.2-0.3l-0.7-1.9h-3.9l-0.7,1.9
		c0,0.1-0.1,0.2-0.2,0.3c-0.1,0.1-0.2,0.1-0.4,0.1h-1.3l3.7-9.3h1.8L750.3,84.7z M744.3,81.2h3l-1.1-3.1c0-0.1-0.1-0.3-0.2-0.5
		s-0.1-0.4-0.2-0.6c0,0.2-0.1,0.4-0.2,0.6l-0.2,0.5L744.3,81.2z"/>
	<path class="st0" d="M757.5,75.4v1.4h-2.8v7.9H753v-7.9h-2.8v-1.4H757.5z"/>
	<path class="st0" d="M765.2,75.4v1.4h-4.1v2.6h3.2v1.3h-3.2v2.6h4.1v1.4h-5.9v-9.3L765.2,75.4z"/>
	<path class="st0" d="M778.8,80c0,0.6-0.1,1.3-0.3,1.9c-0.2,0.6-0.5,1.1-1,1.5c-0.4,0.4-0.9,0.8-1.5,1c-0.6,0.2-1.3,0.4-1.9,0.3
		h-3.5v-9.3h3.5c0.7,0,1.3,0.1,1.9,0.3c0.6,0.2,1.1,0.6,1.5,1c0.4,0.4,0.7,0.9,1,1.5C778.7,78.8,778.8,79.4,778.8,80z M777,80
		c0-0.5-0.1-0.9-0.2-1.4c-0.1-0.4-0.3-0.7-0.6-1c-0.3-0.3-0.6-0.5-0.9-0.6c-0.4-0.2-0.8-0.2-1.2-0.2h-1.8v6.6h1.8
		c0.4,0,0.8-0.1,1.2-0.2c0.4-0.1,0.7-0.4,0.9-0.6c0.3-0.3,0.5-0.6,0.6-1C777,81,777.1,80.5,777,80z"/>
	<path class="st0" d="M786.7,75.4v1.4h-4.1v2.6h3.3v1.3h-3.2v2.6h4.1v1.4h-5.9v-9.3L786.7,75.4z"/>
	<path class="st0" d="M793.9,77.1c0,0.1-0.1,0.2-0.2,0.2c-0.1,0-0.1,0-0.2,0c-0.1,0-0.2,0-0.3-0.1l-0.4-0.2
		c-0.2-0.1-0.3-0.2-0.5-0.2c-0.2-0.1-0.5-0.1-0.7-0.1c-0.2,0-0.4,0-0.6,0.1c-0.2,0-0.3,0.1-0.5,0.2c-0.1,0.1-0.2,0.2-0.3,0.4
		c-0.1,0.2-0.1,0.3-0.1,0.5c0,0.2,0.1,0.4,0.2,0.5c0.1,0.2,0.3,0.3,0.5,0.4c0.2,0.1,0.4,0.2,0.7,0.3l0.8,0.3
		c0.3,0.1,0.5,0.2,0.8,0.3c0.3,0.1,0.5,0.3,0.7,0.5c0.2,0.2,0.4,0.4,0.5,0.7c0.1,0.3,0.2,0.7,0.2,1c0,0.4-0.1,0.8-0.2,1.2
		c-0.1,0.4-0.3,0.7-0.6,1c-0.3,0.3-0.6,0.5-1,0.6c-0.4,0.2-0.9,0.3-1.4,0.2c-0.6,0-1.2-0.1-1.7-0.3c-0.3-0.1-0.5-0.2-0.7-0.4
		c-0.2-0.1-0.4-0.3-0.6-0.5l0.5-0.8c0.1-0.1,0.1-0.1,0.2-0.2c0.1,0,0.1-0.1,0.2-0.1c0.1,0,0.2,0.1,0.3,0.1l0.5,0.3
		c0.2,0.1,0.4,0.2,0.6,0.3c0.3,0.1,0.5,0.1,0.8,0.1c0.4,0,0.8-0.1,1.2-0.4c0.3-0.3,0.4-0.6,0.4-1c0-0.2-0.1-0.4-0.2-0.6
		c-0.1-0.2-0.3-0.3-0.5-0.4c-0.2-0.1-0.4-0.2-0.7-0.3l-0.8-0.2c-0.3-0.1-0.5-0.2-0.8-0.3c-0.3-0.1-0.5-0.3-0.7-0.5
		c-0.2-0.2-0.4-0.4-0.5-0.7c-0.1-0.3-0.2-0.7-0.2-1.1c0-0.3,0.1-0.7,0.2-1c0.1-0.3,0.3-0.6,0.6-0.8c0.3-0.3,0.6-0.5,1-0.6
		c0.4-0.2,0.8-0.2,1.3-0.2c0.5,0,1,0.1,1.5,0.3c0.4,0.2,0.8,0.4,1.2,0.7L793.9,77.1z"/>
	<path class="st0" d="M798.5,84.7h-1.8v-9.3h1.8L798.5,84.7z"/>
	<path class="st0" d="M805.5,83.4c0.3,0,0.7,0,1-0.1c0.3-0.1,0.6-0.2,0.8-0.3v-1.7h-1.2c-0.1,0-0.2,0-0.3-0.1
		c-0.1-0.1-0.1-0.1-0.1-0.2v-1h3.1v3.8c-0.2,0.2-0.5,0.3-0.7,0.5c-0.3,0.1-0.5,0.2-0.8,0.3c-0.3,0.1-0.6,0.1-0.9,0.2
		c-0.4,0-0.7,0.1-1.1,0.1c-0.6,0-1.3-0.1-1.9-0.3c-0.6-0.2-1.1-0.6-1.5-1c-0.4-0.4-0.8-0.9-1-1.5c-0.2-0.6-0.4-1.3-0.3-1.9
		c0-0.7,0.1-1.3,0.3-1.9c0.4-1.2,1.3-2.1,2.5-2.5c0.6-0.2,1.3-0.4,2-0.3c0.7,0,1.4,0.1,2,0.3c0.5,0.2,1,0.5,1.4,0.9l-0.5,0.8
		c-0.1,0.1-0.2,0.2-0.4,0.2c-0.1,0-0.2,0-0.3-0.1l-0.4-0.2c-0.2-0.1-0.3-0.2-0.5-0.2c-0.2-0.1-0.4-0.1-0.6-0.2
		c-0.2,0-0.5-0.1-0.8-0.1c-0.4,0-0.9,0.1-1.2,0.2c-0.4,0.2-0.7,0.4-1,0.7c-0.3,0.3-0.5,0.6-0.6,1c-0.1,0.4-0.2,0.9-0.2,1.3
		c0,0.5,0.1,1,0.2,1.4c0.1,0.4,0.4,0.7,0.6,1c0.3,0.3,0.6,0.5,1,0.7C804.6,83.3,805.1,83.4,805.5,83.4z"/>
	<path class="st0" d="M812.3,75.4h0.1c0,0,0.1,0.1,0.1,0.1c0,0,0.1,0.1,0.1,0.1l4.9,6.2c0-0.2,0-0.3,0-0.4s0-0.3,0-0.4v-5.6h1.5v9.3
		h-0.9c-0.1,0-0.2,0-0.3-0.1c-0.1-0.1-0.2-0.1-0.3-0.2l-4.9-6.2v6.5h-1.5v-9.3L812.3,75.4L812.3,75.4z"/>
	<path class="st0" d="M826.5,83.3h3.7v1.4h-5.5v-9.3h1.7L826.5,83.3z"/>
	<path class="st0" d="M840.3,84.7H839c-0.1,0-0.3,0-0.4-0.1c-0.1-0.1-0.2-0.2-0.2-0.3l-0.7-1.9h-3.8l-0.7,1.9c0,0.1-0.1,0.2-0.2,0.3
		c-0.1,0.1-0.2,0.1-0.4,0.1h-1.3l3.7-9.3h1.8L840.3,84.7z M834.3,81.2h3l-1.1-3.1c0-0.1-0.1-0.3-0.2-0.5s-0.1-0.4-0.2-0.6
		c-0.1,0.2-0.1,0.4-0.2,0.6l-0.2,0.5L834.3,81.2z"/>
	<path class="st0" d="M842,84.7v-9.3h3.2c0.5,0,1,0,1.5,0.2c0.4,0.1,0.7,0.3,1.1,0.5c0.3,0.2,0.5,0.5,0.6,0.8c0.1,0.3,0.2,0.7,0.2,1
		c0,0.2,0,0.4-0.1,0.6c-0.1,0.2-0.2,0.4-0.3,0.6c-0.1,0.2-0.3,0.3-0.5,0.5c-0.2,0.1-0.5,0.3-0.7,0.4c1.3,0.3,1.9,1,1.9,2.1
		c0,0.4-0.1,0.7-0.2,1.1c-0.1,0.3-0.4,0.6-0.7,0.9c-0.3,0.3-0.7,0.5-1.1,0.6c-0.5,0.1-0.9,0.2-1.4,0.2L842,84.7z M843.7,79.4h1.4
		c0.5,0,0.9-0.1,1.3-0.3c0.3-0.2,0.5-0.6,0.5-1c0-0.4-0.1-0.7-0.4-1c-0.4-0.2-0.8-0.3-1.3-0.3h-1.5L843.7,79.4z M843.7,80.6v2.7h1.8
		c0.3,0,0.5,0,0.8-0.1c0.2-0.1,0.4-0.2,0.5-0.3c0.1-0.1,0.2-0.3,0.3-0.4c0.1-0.2,0.1-0.4,0.1-0.6c0-0.2,0-0.4-0.1-0.5
		c-0.1-0.2-0.2-0.3-0.3-0.4c-0.2-0.1-0.3-0.2-0.5-0.3c-0.3-0.1-0.5-0.1-0.8-0.1L843.7,80.6z"/>
	<polygon class="st0" points="851.7,94.1 640.5,94.1 640.5,19.1 633.8,19.1 633.8,13.1 629.5,13.1 618.4,28.3 606.6,28.3 606.6,94 
		588.8,94 588.8,48.9 573.4,48.9 573.4,94 554.8,94 554.8,92.3 571.8,92.3 571.8,47.2 590.5,47.2 590.5,92.3 605,92.3 605,26.7 
		617.6,26.7 628.7,11.5 635.4,11.5 635.4,17.5 642.1,17.5 642.1,92.5 851.7,92.5 	"/>
	<line class="st1" x1="271.8" y1="0.3" x2="271.8" y2="106.3"/>
	<line class="st1" x1="528.7" y1="0.7" x2="528.7" y2="106.7"/>
</g>
</svg>
