<?xml version="1.0" encoding="utf-8"?>
<!-- Generator: Adobe Illustrator 27.5.0, SVG Export Plug-In . SVG Version: 6.00 Build 0)  -->
<svg version="1.1" xmlns="http://www.w3.org/2000/svg" xmlns:xlink="http://www.w3.org/1999/xlink" x="0px" y="0px"
	 viewBox="0 0 1700.9 114" style="enable-background:new 0 0 1700.9 114;" xml:space="preserve">
<style type="text/css">
	.st0{display:none;}
	.st1{display:none;fill:#FF3939;}
	.st2{fill:none;stroke:#FFFFFF;stroke-miterlimit:10;}
	.st3{fill:#FFFFFF;}
</style>
<g id="Layer_2">
	<rect y="0" class="st0" width="1700.9" height="114.1"/>
	<rect x="1121.5" y="0.3" class="st1" width="24.1" height="106"/>
	<rect x="1096.3" y="0.3" class="st1" width="24.1" height="106"/>
	<rect x="825" y="0.3" class="st1" width="24.1" height="106"/>
	<rect x="799.9" y="0.3" class="st1" width="24.1" height="106"/>
	<rect x="535.3" y="0.3" class="st1" width="24.1" height="106"/>
	<rect x="510.1" y="0.3" class="st1" width="24.1" height="106"/>
	<g id="Isolation_Mode">
		<line class="st2" x1="1121" y1="0.3" x2="1121" y2="106.3"/>
		<line class="st2" x1="824.5" y1="0.3" x2="824.5" y2="106.3"/>
		<line class="st2" x1="534.8" y1="0.3" x2="534.8" y2="106.3"/>
	</g>
</g>
<g id="Layer_1">
	<g id="Layer_2_00000178898090270224163550000003547689354033274805_">
	</g>
	<g id="Layer_1_00000076599572531432482430000001172932702952305813_">
		<polygon class="st3" points="949.2,66.4 951.5,66.4 956.6,75.8 956.7,75.8 956.7,66.4 958.3,66.4 958.3,78.1 956.2,78.1 
			950.9,68.5 950.9,68.5 950.9,78.1 949.2,78.1 		"/>
		<path class="st3" d="M961.6,71.5c0.7-0.6,1.6-0.9,2.5-0.9c1.6,0,2.1,0.8,2.1,2.2c-0.6,0-1,0-1.7,0c-1.6,0-4,0.7-4,2.8
			c0,1.8,1.3,2.7,3.1,2.7c1.1,0,2.1-0.5,2.7-1.3l0,0v1.1h1.5c-0.1-0.6-0.1-1.1-0.1-1.7v-3.5c0-2.3-1-3.5-3.4-3.5c-1,0-2,0.3-2.8,0.8
			L961.6,71.5z M966.2,74.8c0,1.2-0.9,2.2-2.1,2.2c-0.1,0-0.1,0-0.2,0c-0.8,0-1.5-0.6-1.6-1.4c0-1.5,2.1-1.7,3-1.7c0.3,0,0.7,0,1,0
			L966.2,74.8z"/>
		<path class="st3" d="M975,70.8h-2.2v4.7c-0.1,0.7,0.5,1.4,1.2,1.5h0.1c0.4,0,0.8-0.1,1.1-0.3V78c-0.4,0.1-0.9,0.2-1.3,0.2
			c-1.6,0-2.6-0.8-2.6-2.5v-5h-2.1v-1.3h1.9v-2l1.6-0.5v2.5h2.3V70.8z"/>
		<path class="st3" d="M978.8,65.9H977v1.8h1.8V65.9z M977.1,78.1h1.6v-8.6h-1.6V78.1z"/>
		<path class="st3" d="M981,73.8c-0.1,2.4,1.8,4.4,4.2,4.5c0.1,0,0.1,0,0.2,0c2.4,0,4.3-1.9,4.3-4.3c0-0.1,0-0.1,0-0.2
			c0.2-2.3-1.6-4.3-3.9-4.5c-0.1,0-0.3,0-0.4,0c-2.3-0.1-4.3,1.7-4.4,4.1C981,73.6,981,73.7,981,73.8 M982.7,73.8
			c0-1.6,1-3.2,2.7-3.2c1.7,0,2.7,1.6,2.7,3.2s-0.9,3.2-2.8,3.2C983.4,77,982.7,75.3,982.7,73.8"/>
		<path class="st3" d="M991.8,69.6h1.5v1.3l0,0c0.6-1,1.6-1.6,2.8-1.6c2.2,0,3.2,1.4,3.2,3.7v5.1h-1.5v-4.4c0-2-0.4-3-1.8-3.1
			c-1.8,0-2.6,1.4-2.6,3.5v4h-1.6V69.6L991.8,69.6z"/>
		<path class="st3" d="M1002.4,71.5c0.7-0.6,1.6-0.9,2.5-0.9c1.6,0,2.1,0.8,2.1,2.2c-0.6,0-1.1,0-1.7,0c-1.6,0-4,0.7-4,2.8
			c0,1.8,1.3,2.7,3.1,2.7c1.1,0,2.1-0.5,2.7-1.3l0,0v1.1h1.5c-0.1-0.6-0.1-1.1-0.1-1.7v-3.5c0-2.3-1-3.5-3.4-3.5c-1,0-2,0.3-2.8,0.8
			L1002.4,71.5z M1007,74.8c0,1.2-0.9,2.2-2.1,2.2c-0.1,0-0.2,0-0.3,0c-0.8,0-1.5-0.6-1.6-1.4c0-1.5,2.1-1.7,3-1.7c0.3,0,0.7,0,1,0
			V74.8L1007,74.8z"/>
		<rect x="1011.5" y="65.5" class="st3" width="1.6" height="12.6"/>
		<path class="st3" d="M1029.3,73.3c0,3.3-1.7,5-4.5,5c-2.8,0-4.5-1.8-4.5-5v-6.9h1.6V73c0,2.2,0.7,3.8,2.9,3.8
			c2.2,0,2.9-1.5,2.9-3.8v-6.7h1.7L1029.3,73.3z"/>
		<path class="st3" d="M1032.1,69.6h1.5v1.3l0,0c0.6-1,1.6-1.6,2.8-1.6c2.2,0,3.2,1.4,3.2,3.7v5.1h-1.6v-4.4c0-2-0.4-3-1.8-3.1
			c-1.8,0-2.6,1.4-2.6,3.5v4h-1.6L1032.1,69.6z"/>
		<path class="st3" d="M1044.2,67.7h-1.8v-1.8h1.8V67.7z M1042.5,69.6h1.6v8.6h-1.6V69.6z"/>
		<polygon class="st3" points="1050.8,78.1 1048.9,78.1 1045.8,69.6 1047.6,69.6 1049.8,76.5 1049.9,76.5 1052.2,69.6 1053.8,69.6 
					"/>
		<path class="st3" d="M1061.9,76.2c-0.8,0.5-1.7,0.8-2.6,0.9c-1.5,0-2.8-1.2-2.8-2.8c0,0,0,0,0-0.1h6.1c0-2.8-0.9-4.8-3.8-4.8
			c-2.4,0-4,1.8-4,4.3c0,2.8,1.4,4.6,4.4,4.6c0.9,0,1.8-0.2,2.7-0.6V76.2L1061.9,76.2z M1056.4,73c0-1.3,1-2.3,2.3-2.4
			c1.2,0,2.2,1,2.2,2.1c0,0.1,0,0.2,0,0.2h-4.5V73z"/>
		<path class="st3" d="M1064.6,69.6h1.5v1.3l0,0c0.4-0.9,1.3-1.5,2.2-1.5c0.3,0,0.7,0,1,0.1v1.4c-0.3-0.1-0.6-0.2-0.9-0.2
			c-1.4,0-2.3,1.3-2.3,3.5v3.9h-1.6L1064.6,69.6z"/>
		<path class="st3" d="M1070.5,76.4c0.6,0.4,1.3,0.6,2,0.6s1.6-0.3,1.6-1.2c0-1.6-3.7-1.4-3.7-3.8c0-1.8,1.3-2.6,3-2.6
			c0.7,0,1.4,0.1,2,0.3l-0.1,1.4c-0.5-0.2-1.1-0.4-1.6-0.4c-0.8,0-1.5,0.3-1.5,1c0,1.7,3.7,1.2,3.7,4c0,1.5-1.2,2.7-2.7,2.7
			c-0.1,0-0.2,0-0.3,0c-0.8,0-1.6-0.1-2.3-0.5L1070.5,76.4z"/>
		<path class="st3" d="M1079.5,67.7h-1.8v-1.8h1.8V67.7z M1077.8,69.6h1.6v8.6h-1.6V69.6z"/>
		<path class="st3" d="M1086.8,70.8h-2.2v4.7c-0.1,0.7,0.4,1.4,1.2,1.5c0.1,0,0.1,0,0.2,0c0.4,0,0.8-0.1,1.1-0.3V78
			c-0.4,0.1-0.9,0.2-1.3,0.2c-1.6,0-2.6-0.8-2.6-2.5v-5h-1.9v-1.3h1.9v-2l1.6-0.5v2.5h2.2L1086.8,70.8z"/>
		<path class="st3" d="M1088.1,80.4c0.2,0.1,0.5,0.1,0.7,0.1c1.4,0,1.9-2,1.9-2.1c-0.1-0.3-0.2-0.6-0.3-0.9l-2.9-8h1.7l2.3,7.1l0,0
			l2.3-7.1h1.6l-3.1,8.7c-0.6,1.7-1.2,3.5-3.3,3.5c-0.4,0-0.7,0-1.1-0.1L1088.1,80.4z"/>
		<path class="st3" d="M948.5,93.7c-0.1,2.4,1.8,4.4,4.2,4.5c0.1,0,0.1,0,0.2,0c2.4,0,4.3-1.9,4.3-4.3c0-0.1,0-0.1,0-0.2
			c0.1-2.3-1.6-4.3-4-4.5c-0.1,0-0.3,0-0.4,0c-2.3-0.1-4.3,1.7-4.3,4.1C948.5,93.4,948.5,93.5,948.5,93.7 M950.2,93.7
			c0-1.6,1-3.2,2.7-3.2c1.7,0,2.7,1.6,2.7,3.2s-0.8,3.2-2.7,3.2C951,96.9,950.2,95.2,950.2,93.7"/>
		<path class="st3" d="M960.3,90.7h-2v-1.3h2v-0.8c0-2.1,0.5-3.4,2.9-3.4c0.3,0,0.7,0,1,0.1l-0.1,1.3c-0.2-0.1-0.5-0.1-0.8-0.1
			c-1.4,0-1.5,0.9-1.5,2v0.9h2.3v1.3h-2.2V98h-1.6V90.7L960.3,90.7z"/>
		<path class="st3" d="M975.4,88c-0.7-0.3-1.4-0.5-2.2-0.5c-0.9,0-2,0.3-2,1.6c0,2.2,5,1.7,5,5.6c0,2.5-1.9,3.5-4.3,3.5
			c-0.8,0-1.6-0.2-2.4-0.5l0.2-1.6c0.8,0.3,1.6,0.5,2.4,0.6c1.2,0.1,2.2-0.7,2.3-1.9l0,0c0-2.6-5-1.9-5-5.5c0-2.1,1.6-3.2,3.7-3.2
			c0.8,0,1.7,0.1,2.5,0.4L975.4,88z"/>
		<path class="st3" d="M980.2,87.5h-1.8v-1.8h1.8V87.5z M978.5,89.4h1.6V98h-1.6V89.4z"/>
		<path class="st3" d="M983,89.4h1.5v1.3l0,0c0.6-1,1.6-1.6,2.8-1.6c2.2,0,3.2,1.4,3.2,3.7v5.1h-1.6v-4.4c0-2-0.4-3-1.8-3
			c-1.8,0-2.6,1.4-2.6,3.5v4h-1.6v-8.6H983z"/>
		<path class="st3" d="M1000.7,89.4h-1.5v1.3l0,0c-0.5-1-1.7-1.6-2.8-1.5c-2.6,0-3.8,2.3-3.8,4.6s1.2,4.2,3.6,4.2
			c1.1,0,2.2-0.5,2.9-1.3l0,0v0.8c0,1.8-1,2.9-2.6,2.9c-1.1,0-2.1-0.3-3.1-0.8l-0.2,1.5c1,0.4,2,0.6,3.1,0.6c3,0,4.4-1.5,4.4-4.1
			L1000.7,89.4L1000.7,89.4z M996.6,96.7c-1.5,0-2.4-1.4-2.4-3c0-1.5,0.8-3.2,2.4-3.2c1.6,0,2.5,1.5,2.5,3.3
			C999.3,95.2,998.2,96.5,996.6,96.7C996.7,96.7,996.7,96.7,996.6,96.7"/>
		<path class="st3" d="M1003.9,91.3c0.7-0.6,1.6-0.9,2.5-0.9c1.6,0,2.1,0.8,2.1,2.2c-0.6,0-1.1,0-1.7,0c-1.6,0-4,0.7-4,2.8
			c0,1.9,1.3,2.7,3.1,2.7c1,0,2-0.5,2.6-1.3l0,0V98h1.5c-0.1-0.6-0.1-1.1-0.1-1.7v-3.6c0-2.3-1-3.5-3.4-3.5c-1,0-2,0.3-2.8,0.8
			L1003.9,91.3z M1008.4,94.6c0.1,1.2-0.9,2.2-2.1,2.3c-0.1,0-0.2,0-0.3,0c-0.8,0-1.5-0.6-1.6-1.4c0-1.5,2.1-1.6,3-1.6
			c0.3,0,0.7,0,1,0V94.6L1008.4,94.6z"/>
		<path class="st3" d="M1012.6,101.4h1.6v-4.7l0,0c0.6,0.9,1.7,1.5,2.8,1.4c2.6,0,3.7-2.3,3.7-4.6s-1.2-4.3-3.7-4.3
			c-1.1,0-2.2,0.5-2.9,1.4l0,0v-1.2h-1.5V101.4L1012.6,101.4z M1019.1,93.6c0,1.3-0.7,3.2-2.4,3.2c-1.7,0-2.5-1.8-2.5-3.2
			c0-1.6,0.8-3.2,2.5-3.2C1018.4,90.4,1019.1,92.1,1019.1,93.6"/>
		<path class="st3" d="M1022.3,93.7c-0.1,2.4,1.8,4.4,4.2,4.5c0.1,0,0.1,0,0.2,0c2.4,0,4.3-1.9,4.3-4.3c0-0.1,0-0.1,0-0.2
			c0.1-2.3-1.6-4.3-4-4.5c-0.1,0-0.2,0-0.4,0c-2.3-0.1-4.3,1.8-4.4,4.1C1022.3,93.4,1022.3,93.5,1022.3,93.7 M1024,93.7
			c0-1.6,1-3.2,2.7-3.2c1.7,0,2.7,1.6,2.7,3.2s-0.8,3.2-2.7,3.2C1024.8,96.9,1024,95.2,1024,93.7"/>
		<path class="st3" d="M1033.1,89.4h1.5v1.3l0,0c0.4-0.9,1.3-1.5,2.2-1.5c0.3,0,0.7,0,1,0.1v1.4c-0.3-0.1-0.6-0.2-0.9-0.2
			c-1.4,0-2.3,1.3-2.3,3.5v3.9h-1.6L1033.1,89.4z"/>
		<path class="st3" d="M1046.1,96c-0.8,0.5-1.7,0.8-2.6,0.9c-1.5,0-2.8-1.3-2.8-2.8c0,0,0,0,0-0.1h6.1c0-2.8-0.9-4.8-3.8-4.8
			c-2.4,0-4,1.8-4,4.3c0,2.8,1.4,4.6,4.4,4.6c0.9,0,1.8-0.2,2.7-0.6V96L1046.1,96z M1040.6,92.8c0-1.3,1-2.3,2.3-2.4
			c1.2,0,2.1,1,2.1,2.2c0,0.1,0,0.1,0,0.2C1045,92.8,1040.6,92.8,1040.6,92.8z"/>
		<path class="st3" d="M1057.2,43.1c3.2,3,9.5,5.7,17.2,5.8c6.8,0.1,12.2-1.9,12.5-7.5c0.7-12.2-30.3-7.3-29.1-27.8
			c0.5-10.4,10.7-13.8,21.7-13.6c5.9,0.1,11.9,1.5,15.1,3.2v7.3c-4.2-2.8-9-4.3-14-4.6c-7-0.1-12.5,1.2-12.6,6.3
			c-0.2,10.6,31.1,8.1,29.9,28.4c-0.7,11.5-11.8,15-23.4,14.8c-6.7-0.1-13.2-1.4-17.3-3.6V43.1z"/>
		<path class="st3" d="M1027.8,55.4c-14.4,0-22.7-6.5-22.7-19.9v-34h10.8v34c0,8.3,4,13.4,11.9,13.4c7.9,0,11.9-5,11.9-13.4v-34
			h10.8v34C1050.5,48.9,1042.2,55.4,1027.8,55.4"/>
		<path class="st3" d="M987.5,1.6v38.3L962.7,4.3c-1.2-1.7-3.2-2.7-5.3-2.7h-8.2v52.2h7.2V15.5l24.8,35.4c1.2,1.8,3.2,2.8,5.4,2.8
			h8.1V1.6H987.5z"/>
		<path class="st3" d="M866.8,8.6c-2.4,0-4.9,0.2-7.3,0.6v17.2c2.3-0.4,4.6-0.6,6.9-0.5c2.6,0,5.1,0.5,7.6,1.2v-17
			C871.6,9.2,869.2,8.7,866.8,8.6 M870.8,23.5c-1.1-0.5-2.4-0.7-3.6-0.8c-1.4,0-2.7,0.2-4,0.4c-0.4,0.1-0.8-0.1-1-0.5
			c-0.1-0.4,0.1-0.7,0.5-0.8c0,0,0,0,0.1,0c1.5-0.3,3-0.4,4.5-0.4c1.4,0.1,2.8,0.3,4.2,0.9c0.4,0.1,0.6,0.4,0.5,0.8v0.1
			C871.7,23.5,871.2,23.6,870.8,23.5 M870.9,20.1c-1.1-0.5-2.4-0.7-3.6-0.8c-1.4,0-2.7,0.2-4,0.4c-0.4,0.1-0.8-0.1-1-0.4
			c-0.1-0.4,0.1-0.7,0.5-0.9c0,0,0,0,0.1,0c1.5-0.3,3-0.4,4.5-0.4c1.4,0.1,2.8,0.3,4.2,0.9c0.4,0.1,0.6,0.5,0.5,0.8c0,0,0,0,0,0.1
			C871.7,20,871.3,20.2,870.9,20.1 M870.9,16.7c-1.1-0.5-2.4-0.7-3.6-0.8c-1.4,0-2.7,0.2-4,0.4c-0.4,0.1-0.8-0.1-1-0.4
			c-0.1-0.4,0.1-0.7,0.4-0.9h0.1c1.5-0.3,3-0.4,4.5-0.4c1.4,0.1,2.8,0.3,4.2,0.9c0.4,0.1,0.6,0.4,0.5,0.8v0.1
			C871.7,16.6,871.3,16.8,870.9,16.7 M870.9,13.3c-1.1-0.5-2.4-0.7-3.6-0.8c-1.4,0-2.7,0.2-4,0.4c-0.4,0.1-0.8-0.1-1-0.4
			c-0.1-0.4,0.1-0.7,0.4-0.9h0.1c1.5-0.3,3-0.4,4.5-0.4c1.4,0.1,2.8,0.3,4.2,0.9c0.4,0.1,0.6,0.4,0.5,0.8V13
			C871.7,13.2,871.3,13.4,870.9,13.3"/>
		<path class="st3" d="M882.3,8.6c-2.5,0-4.9,0.5-7.2,1.4v17.1c2.5-0.8,5.1-1.2,7.7-1.2c2.3,0,4.6,0.2,6.9,0.5V9.1
			C887.1,8.8,884.7,8.6,882.3,8.6 M885.9,23c-1.3-0.2-2.7-0.4-4.1-0.4c-1.2,0.1-2.4,0.3-3.6,0.8c-0.4,0.1-0.8,0-1-0.4
			c-0.1-0.3,0-0.7,0.4-0.9h0.1c1.3-0.5,2.7-0.8,4.1-0.8c1.5,0,3,0.2,4.5,0.5c0.4,0.1,0.6,0.4,0.5,0.8l0,0
			C886.8,23,886.3,23.2,885.9,23 M885.9,19.7c-1.3-0.2-2.7-0.4-4.1-0.4c-1.2,0.1-2.4,0.3-3.6,0.8c-0.4,0.1-0.8,0-1-0.4
			c-0.1-0.3,0-0.7,0.4-0.9h0.1c1.3-0.5,2.7-0.8,4.1-0.9c1.5,0,3,0.2,4.5,0.4c0.4,0.1,0.6,0.5,0.5,0.8l0,0
			C886.8,19.6,886.4,19.8,885.9,19.7 M886,16.2c-1.3-0.2-2.7-0.4-4.1-0.4c-1.2,0.1-2.4,0.3-3.6,0.8c-0.4,0.1-0.8,0-1-0.4
			c-0.1-0.3,0-0.7,0.4-0.9h0.1c1.3-0.5,2.7-0.8,4.1-0.9c1.5,0,3,0.2,4.5,0.4c0.4,0.1,0.6,0.4,0.5,0.8c0,0,0,0,0,0.1
			C886.8,16.2,886.4,16.4,886,16.2 M886,12.8c-1.3-0.2-2.7-0.4-4.1-0.4c-1.2,0.1-2.4,0.3-3.6,0.8c-0.4,0.1-0.8,0-1-0.4
			c-0.1-0.3,0-0.7,0.4-0.9h0.1c1.3-0.5,2.7-0.8,4.1-0.9c1.5,0,3,0.2,4.5,0.5c0.4,0.1,0.6,0.4,0.5,0.8c0,0,0,0,0,0.1
			C886.8,12.7,886.3,12.9,886,12.8"/>
		<path class="st3" d="M876,68.4L876,68.4L876,68.4L876,68.4"/>
		<path class="st3" d="M936.8,55.6v-54h-87.6v54c0,0.1,0,0.3,0,0.4c0,2.6,0.6,16,11.4,33.2c11.8,18.8,31.3,24.5,32.1,24.8l0.3,0.1
			l0.3-0.1c0.8-0.2,20.4-6,32.2-24.7S936.8,56.2,936.8,55.6 M923.5,16.9c2.6,1.5,4.1,4.3,4.1,7.3c0,4.7-3.8,8.5-8.5,8.5
			c-4.7,0-8.5-3.8-8.5-8.5c0-1.8,0.5-3.5,1.6-4.9c0.4,0.3,0.8,0.6,1.2,1c-0.8,1.2-1.2,2.5-1.2,3.9c0,3.8,3.1,7,6.9,7s6.9-3.2,6.9-7
			c0-2.3-1.1-4.4-3-5.7C923.3,17.9,923.4,17.4,923.5,16.9 M914.8,28c0.6-1,1-2.1,1.1-3.2c0.5-0.1,1.1-0.3,1.6-0.4
			c0,1.7-0.6,3.4-1.6,4.7C915.5,28.8,915.1,28.4,914.8,28 M914,6.9c4.7,0,8.5,3.8,8.5,8.5s-3.8,8.5-8.5,8.5l-0.8-0.1
			c0-0.5,0.1-1,0.3-1.5h0.5c3.8,0,6.9-3.2,6.9-7s-3.1-7-6.9-7c-3.6,0-6.6,2.8-6.9,6.3c-0.5,0.1-1.1,0.3-1.6,0.5
			c0.1-4.6,3.8-8.3,8.4-8.3 M916.2,17.8c-0.4-0.4-0.7-0.8-1.2-1.1c1.3-0.7,2.7-1.1,4.1-1.1l0.8,0.1c0,0.5-0.1,1-0.3,1.5h-0.5
			C918.1,17.2,917.1,17.4,916.2,17.8 M909,15.6c3.3,0,6.3,2,7.7,5c-0.5,0.2-1,0.4-1.5,0.5c-1.1-2.4-3.6-4-6.2-4
			c-3.8,0-6.9,3.2-6.9,7s3.1,7,6.9,7c1,0,2.1-0.2,3-0.7c0.4,0.4,0.7,0.8,1.2,1.1c-1.3,0.7-2.7,1.1-4.1,1.1c-4.7,0-8.5-3.8-8.5-8.5
			l0,0C900.5,19.5,904.3,15.7,909,15.6C909,15.7,909,15.7,909,15.6 M910.1,21.1c-0.2,0.5-0.3,1.1-0.4,1.6c-1.5-0.9-2.6-2.2-3.4-3.8
			c0.5-0.2,1-0.4,1.5-0.5C908.4,19.5,909.2,20.4,910.1,21.1 M858.3,27.8V8.2l0.5-0.1c2.6-0.4,5.3-0.7,8-0.7c2.6,0.1,5.2,0.6,7.7,1.6
			c2.5-1,5.1-1.5,7.8-1.5s5.4,0.2,8,0.7l0.5,0.1V31l-0.7-0.1c-2.4-0.5-4.9-0.7-7.3-0.6c-2.7,0.1-5.4,0.5-8,1.4l-0.2,0.1l-0.2-0.1
			c-2.6-0.9-5.3-1.3-8-1.4c-2.5,0-4.9,0.2-7.3,0.6l-0.8,0.1V27.8L858.3,27.8z M923.7,87.9c-10.6,16.8-28.2,22.9-30.7,23.7
			c-2.4-0.8-20-6.9-30.6-23.7c-10.6-16.8-11-30.3-11-32.2V36.4h83.3v19.1c0,0,0,0.1,0,0.2C934.7,57.6,934.3,71.1,923.7,87.9"/>
		<path class="st3" d="M928.5,49.1c-2.9-1.6-6.7-0.5-10,0.7c-2,0.8-4,1.3-6.1,1.6c-2.1,0.3-9.3,1.3-11.6-0.6
			c-0.4-0.3-0.6-0.8-0.7-1.2c0-0.7,0.2-1.4,0.6-2c0.6-0.6,1.9-0.9,4.1-0.9l5.6,0.1c0.4,0.4,1.2,1.2,3.5,1.7c2.5,0.4,5.1,0.2,7.6-0.5
			c-0.4-0.1-0.8-0.3-1.2-0.5c-0.3-0.2-0.4-0.6-0.4-0.9c0.6,0.3,1.3,0.4,1.9,0.4c1.4,0,2.1-0.7,3.4-1.1c0.9-0.2,1.9-0.2,2.8-0.1
			c-0.7-0.8-1.7-1.4-2.7-1.7c-1-0.1-2-0.1-3,0.1c0.3-0.2,0.6-0.4,0.9-0.6c0.3-0.3,0.4-0.6,0.5-1c-1,0.4-2.1,0.6-3.2,0.5
			c-1.6-0.1-1.5-0.7-4.7-0.8c-1.9,0.1-3.8,0.8-5.2,2.1c-2.6-0.2-4.6-0.3-5.8-0.3c-3.2,0-5.1,0.5-6.3,1.8c-1,1.1-1.4,2.6-1.2,4
			c0.1,1.2,0.7,2.4,1.6,3.2c3,2.5,11.2,1.8,14.1,1.2c2.1-0.3,4.1-0.8,6.1-1.4h0.1c1.4-0.5,5.9-2,7.7-1c0.4,0.3,0.7,0.7,0.8,1.1
			c0.1,0.2,0.1,0.5,0.1,0.7c0,0.4-0.1,0.7-0.3,1c-1.7,2.1-8,2.4-10.8,2.6c-1.5-0.3-3-0.5-4.6-0.5c-1.6,0-3,0.1-4.4,0.2
			c-3.3,0.3-6.6,0.3-9.9-0.1c-1.9-0.2-3.7-0.6-5.6-1.1c-0.1-0.7-0.4-1.3-0.9-1.7c1.1,0.3,2.5-0.8,2.9-1.4c0-0.1-1.9-0.6-2.1-1.8
			c0,0,1.4,0.1,1.9-1.8c-1.4-0.8-0.9-1-1.6-2c-0.6-0.8-1.5-1.3-2.5-1.2c0.3,0,0.6-0.1,0.9-0.2c0.6-0.3,1-1.1,1.6-1.1
			c-1.2-1.9-4.4-2.1-5.7-1.7c0.3-0.4,0.9-0.9,0.9-1.5c-1.8,0.5-3.5-0.4-5.3-0.1c-1.3,0.1-2.4,1-2.8,2.3h-0.1
			c-0.2-1.6-1.3-2.5-2.7-2.6c-1.8-0.3-3.5,0.6-5.3,0.1c0,0.6,0.5,1.1,0.9,1.5c-1.3-0.4-4.5-0.1-5.7,1.7c0.6,0,1,0.8,1.6,1.1
			c0.3,0.2,0.6,0.2,0.9,0.2c-1,0-1.9,0.4-2.4,1.2c-0.7,0.9-0.2,1.2-1.6,2c0.6,1.9,1.9,1.7,1.9,1.8c-0.1,1.2-2,1.8-2,1.8
			c0.4,0.6,1.8,1.8,2.9,1.4c-0.8,0.7-1.1,1.8-0.8,2.8c-1.3-0.9-2.5-2-3.5-3.2c-0.4-1.1-0.8-2.1-1.1-3.2l-0.3-1l-0.2-0.5
			c-0.4-1.6-0.8-3-1.6-3.1c-0.3-0.1-0.7-0.1-1.1-0.1c-0.2-0.4-0.6-0.7-1-0.9s-0.8-0.2-1.2-0.1c0.4,0.3,0.7,0.6,0.9,1
			c0.2,0.1,0.2,0.2,0.2,0.3c-0.1,0.1-0.3,0.2-0.4,0.3l0,0l-0.3,0.3h-0.2c-0.4-0.1-0.9,0-1.2,0.1c0.3,0.2,0.6,0.3,0.8,0.6
			c-0.4,0.5-0.5,1-0.6,1.6c0,0.1,0,0.1,0,0.2c-0.4,0-0.8,0.1-1.1,0.4c0.4,0.1,0.8,0.3,1.2,0.6l0.1,0.1l-0.1,0.1
			c-0.2,0.3-0.3,0.6-0.2,0.9c0.1,0.8,0.4,1.5,1,2l1.6,1.4c0.4,1.1,1,2.1,1.7,3c0.1,0.2,1,1.8,2,3.4c0.1,0.2,0.3,0.5,0.4,0.7
			c0.2,1,0.4,2.3,0.5,3.3c0.1,1.3,0.1,2.6,0,3.8c0.7,0,1.3-0.3,1.7-0.8c0.3,0.9,0.4,1.8,0.4,2.7c-0.1,0.8-0.2,1.7-0.3,2.5
			c0.7-0.4,1.4-0.8,2-1.4c0.4-0.4,0.8-0.9,1.1-1.4c0.9,0.6,3.6-0.4,5-0.9c0.3,0.6,0.7,1.2,1.1,1.8c0.2-0.8,1.1-1.2,1.5-1.9h0.3
			c-0.1,1.2,0.1,2.3,0.6,3.4c0.6,1.1,1.4,2.1,2.2,3.1c-0.3,1.5-0.9,4.2-1.5,6.5c-0.4,1.6-0.9,3.1-1.7,4.5c-1,0-2.7,0.1-3.3,0.1
			c-1.1-0.2-2.1,0.2-2.9,0.8l-0.1,0.1c-0.5,0-0.9,0.2-1.3,0.5c-0.3,0.3-0.5,0.7-0.6,1.1c0.4-0.2,0.8-0.3,1.2-0.4h0.1l0,0
			c0,0.2,0.1,0.4,0.2,0.6c-0.1,0.1-0.2,0.1-0.2,0.2c-0.3,0.3-0.5,0.7-0.5,1.2c0.4-0.3,0.8-0.4,1.2-0.5c0.2,0.3,0.4,0.6,0.6,0.8v0.2
			c-0.3,0.3-0.4,0.8-0.4,1.2c0.3-0.2,0.7-0.4,1.1-0.5c0.2,0.2,0.3,0.4,0.5,0.5c0.8,0.7,2.8,0.3,5.3-0.4l1.6-0.4
			c1-0.1,1.8-0.7,2.3-1.5c0.2-0.3,0.3-0.7,0.4-1l0.1-0.4c0.3-1,0.8-1.9,1.3-2.7c0,0,0.7-1.1,1.6-2.6c0.8-0.7,1.8-1.5,2.5-2
			c1.1-0.7,3.3-1.9,3.3-1.9c-0.3-0.5-0.8-0.9-1.4-1.1c0.6-0.6,1.3-1.1,2-1.6c0.8-0.3,1.6-0.6,2.4-0.7c-0.3-0.6-0.7-1.1-1.3-1.5
			c0.4-0.1,0.7-0.3,1-0.5c1.3-1,2.9-1.3,4.5-0.8c0.1-0.7-0.2-1.5-0.9-1.8c0.6-0.3,1.2-0.5,1.9-0.6c0.4,0.7,0.9,1.5,1.1,1.8
			c1.1,1.5,2.3,3,3.5,4.4c0,0,0.1,0.1,0,0.2c-0.2,0.9-0.5,1.8-0.9,2.6l-0.3,0.7l-1.5,3.6c-0.7,0-2.6,0.1-3.3,0.1
			c-1-0.1-2,0.1-2.8,0.8c-0.1,0.1-0.1,0.2-0.2,0.2c-0.5,0.1-1,0.3-1.3,0.6c-0.3,0.3-0.5,0.7-0.5,1.1c0.4-0.2,0.8-0.4,1.2-0.5h0.2
			c0,0.2,0.1,0.4,0.2,0.6c-0.1,0.1-0.2,0.2-0.3,0.3c-0.3,0.3-0.4,0.8-0.4,1.2c0.4-0.3,0.8-0.5,1.2-0.6h0.1c0.1,0.2,0.3,0.4,0.4,0.6
			c0,0.1-0.1,0.1-0.1,0.2c-0.3,0.3-0.4,0.8-0.5,1.2c0.3-0.3,0.7-0.5,1.2-0.6c0.2,0.2,0.3,0.4,0.5,0.5c0.8,0.7,2.4,0.3,4.6-0.4
			l1.6-0.4c0.9-0.1,1.8-0.6,2.2-1.4l0.4-0.9c0.2-0.4,0.4-0.8,0.6-1.2c0.3-0.4,0.5-0.9,0.8-1.4c0.4-0.3,0.7-0.6,1-0.8
			c0.7-0.5,2.5-1.6,2.5-1.6c-0.2-0.4-0.6-0.8-1.1-0.9c0.5-0.5,1-1,1.6-1.3c0.6-0.3,1.2-0.5,1.9-0.6c-0.5-0.4-1-0.7-1.5-1
			c-0.3-0.1-0.6-0.2-0.9-0.2c-0.1-0.5-0.3-0.9-0.6-1.3c-0.6-1,0.3-3.1,1-4.3c0.6,0.8,1.3,1.6,2,2.4l3.9,4.3
			c-0.4,1.5-0.8,2.9-1.3,4.3c-0.5,1.2-1,2.5-1.6,3.6c-0.8,0-2.5,0.1-3.2,0.1c-1-0.1-2.1,0.1-2.9,0.8c-0.1,0.1-0.2,0.2-0.2,0.3
			c-0.4,0.1-0.9,0.3-1.2,0.6c-0.3,0.3-0.5,0.7-0.5,1.2c0.3-0.3,0.7-0.5,1.2-0.5h0.1c0.1,0.2,0.1,0.4,0.2,0.6
			c-0.1,0.1-0.2,0.2-0.3,0.3c-0.3,0.3-0.4,0.8-0.4,1.2c0.4-0.3,0.8-0.5,1.2-0.6l0,0c0.2,0.3,0.4,0.5,0.5,0.8l0,0
			c-0.3,0.3-0.4,0.8-0.4,1.2c0.3-0.2,0.6-0.4,1-0.6c0.1,0.1,0.3,0.3,0.4,0.4c0.8,0.7,2.4,0.3,4.7-0.4l1.6-0.4
			c0.9-0.1,1.8-0.6,2.2-1.4c0.1-0.4,1.1-2.7,1.4-3.3c0.5-1.2,1-2.4,1.6-3.6c0.2-0.2,0.5-0.4,0.7-0.6c0.9-0.6,2.8-1.7,2.8-1.7
			c-0.2-0.4-0.6-0.8-1.1-0.9c0.5-0.4,1-0.8,1.5-1.2c0.6-0.3,1.3-0.6,2-0.7c-0.5-0.4-1-0.7-1.5-1c-0.4-0.2-0.9-0.3-1.3-0.3
			c-0.1-0.4-0.4-0.8-0.8-0.9c-0.6-0.3-1.2-0.8-1.6-1.3c-1-1.1-1.1-3.3-1.1-5.5c0-0.5,0-1,0-1.4v-2.1c0-1.8-0.3-3.6-0.8-5.3
			c3.2-0.3,9.1-0.9,11.5-3.9c0.7-0.8,1.1-1.9,1.1-3c0-0.5-0.1-1.1-0.2-1.6C930.5,50.7,929.7,49.7,928.5,49.1 M868.7,69.6
			c-0.8-0.8-3.7-5.8-5.6-9.2c-1.4-2.5-2-3.4-2.1-3.6c-0.6-0.8-1.2-1.8-1.6-2.8v-0.1l-1.7-1.5c-0.5-0.4-0.7-1-0.7-1.6
			c0.2,0.1,0.4,0.1,0.7,0c0.6-0.3,0.6-0.8,0.6-0.8c-0.3-0.4-0.7-0.7-1.2-0.9c-0.1-0.4,0-0.9,0.2-1.3c0,0.1,0.1,0.3,0.1,0.4
			c0.2,0.2,0.5,0.3,0.8,0.2c0.4,0,0.7-0.3,0.8-0.6c-0.2-0.4-0.5-0.7-0.8-1v0h0.1c0.1-0.1,0.1-0.1,0.2-0.1c0.1,0.1,0.3,0.1,0.5,0.1
			c0.8,0,0.9-0.4,0.9-0.4l0,0c0.2,0,0.3,0,0.5,0.1c0.2,0.1,0.6,1,1,2.6l0.2,0.5l0.3,1c0.3,1.2,0.7,2.4,1.2,3.5
			c1.3,1.5,2.8,2.9,4.5,4l0.2,0.8c0.3,0.9,1.4,2.6,1.8,3.5c0.5,0.9,0.6,2,0.4,3c1,0,2-0.5,2.7-1.3c0.3,1.7-0.3,2.8,0.4,4.8
			C870.9,69.5,869,69.9,868.7,69.6 M876.8,61c-0.2-0.7-0.4-1.3-0.5-2c-0.1,0-1.4-0.9-1.4-0.9v-2.6c0,0-3.2-4-3.2-3.9s1.1-2,1.1-2
			l0,0c-0.5-0.4-1.7-1.4-1.1-2.6c0.6-1.2,2.2-0.8,2.7-0.6c0.1-0.1,3.5-1.6,3.6-1.6c0.1,0,1.3,1.6,1.3,1.6s1.4-1.6,1.3-1.6
			c-0.1,0,3.5,1.5,3.6,1.6c0.5-0.2,2-0.7,2.7,0.6c0.7,1.3-0.6,2.2-1.1,2.6l0,0l1.1,2l-3.2,3.9V58c0,0-1.3,0.9-1.4,0.9
			c-0.1,0.7-0.3,1.3-0.5,2c-0.8,0.4-1.6,0.6-2.5,0.6h-0.1C878.4,61.5,877.5,61.3,876.8,61 M907.7,75.5c0,0.5,0.1,0.9,0.3,1.3
			c0.2,0.3,0.4,0.6,0.5,1c0,0.3-0.2,0.5-0.6,0.9c-0.8,1-1.4,2.1-1.8,3.3c-0.6,1.2-1.2,2.3-1.7,3.2c-0.3,0.4-0.5,0.9-0.6,1.4
			l-0.4,0.8c-0.4,0.6-1,1-1.7,1.1l-1.7,0.4c-1.1,0.3-3,0.9-3.7,0.6c0.2-0.1,0.3-0.3,0.3-0.5c0.1-0.3,0-0.7-0.2-1
			c-0.4,0-0.8,0.1-1.2,0.3l-0.1-0.2c0.2-0.2,0.3-0.4,0.4-0.7c0.1-0.3,0-0.6-0.2-0.9c-0.3,0-0.7,0.1-1,0.2c0,0,0-0.1-0.1-0.1
			c0.2-0.1,0.4-0.3,0.4-0.5c0.1-0.2,0.1-0.4,0-0.7c0.6-0.4,1.4-0.6,2.1-0.5c0.9,0,3.5-0.1,3.6-0.1h0.2l1.7-4l0.3-0.7
			c0.5-0.9,0.8-1.9,1-2.9c0-0.3-0.1-0.5-0.3-0.7c-1.2-1.3-2.4-2.8-3.4-4.3c-0.2-0.3-0.6-0.9-0.9-1.5c1.2-0.2,2.5-0.1,3.6,0.2
			c0-0.6-0.3-1.2-0.8-1.5c1.7-0.5,3.4-0.7,5.1-0.6c0.1,0.1,0.1,0.2,0.2,0.3c0.4,0.5,0.9,1,1.4,1.3c0.1,0.1,0.2,0.1,0.3,0.2l0.5,0.6
			C908.3,72.6,907.8,74,907.7,75.5 M929.3,56.1c-2.3,2.8-8.4,3.4-11.4,3.6h-0.5l0.2,0.5c0.6,1.8,0.8,3.7,0.9,5.6v2.1
			c0,2.7-0.1,5.8,1.3,7.5c0.5,0.6,1.1,1.2,1.9,1.5c0.3,0.2,0.4,0.2,0.4,0.6s-0.2,0.7-0.6,1.2l-0.5,0.8c-1.3,2.3-2.4,4.8-3.4,7.2
			c-0.3,0.8-1.2,3-1.4,3.2c-0.3,0.6-1,1.1-1.7,1.2l-1.7,0.4c-1.1,0.4-2.3,0.6-3.5,0.7c0.2-0.1,0.3-0.3,0.4-0.6
			c0.1-0.3,0-0.7-0.2-0.9c-0.5,0.1-1,0.2-1.4,0.4l-0.2-0.2c0.2-0.1,0.4-0.3,0.4-0.6c0.1-0.3,0-0.7-0.2-1c-0.3,0-0.7,0.1-1,0.2
			c0,0,0-0.1-0.1-0.1c0.2-0.1,0.4-0.3,0.5-0.5c0.1-0.3,0.1-0.5,0-0.8c0.6-0.3,1.3-0.5,2-0.4c0.7,0,2.7-0.1,3.5-0.1h0.2l0.1-0.2
			c0.7-1.3,1.3-2.6,1.8-3.9c0.5-1.5,1-3,1.4-4.6v-0.2l-4.2-4.6c-0.8-0.9-1.6-1.8-2.2-2.8l0,0l0,0c-0.5-0.6-0.9-1.2-1.4-1.9l-0.5-0.6
			c-0.5-0.9-1.1-1.7-1.8-2.5c-0.6-0.6-1.3-1.1-2-1.6l-0.6,0.5l1,1.7l-16.9,5l0.1,0.4c0.2,0.7,0.3,1.3,0.4,2v0.1
			c-0.2,0.7-5.1,8.7-6.8,11.4c-0.6,0.9-1.1,1.9-1.4,2.9l-0.2,0.5c-0.1,0.3-0.2,0.6-0.3,0.9c-0.4,0.6-1,0.9-1.7,1l-1.6,0.4
			c-1.3,0.3-3.6,1-4.4,0.7c0.2-0.1,0.3-0.2,0.3-0.4c0.1-0.4,0.1-0.8-0.1-1.1c-0.5,0.1-0.9,0.2-1.3,0.3l-0.2-0.2
			c0.2-0.1,0.3-0.2,0.3-0.4c0.1-0.3,0.1-0.7,0-1.1c-0.4,0-0.8,0.1-1.2,0.2l-0.1-0.2c0.2-0.1,0.4-0.2,0.5-0.4
			c0.1-0.2,0.1-0.5,0.1-0.8c0.6-0.3,1.4-0.5,2.1-0.4c0.7,0,2.7-0.1,3.6-0.1h0.2l0.1-0.2c0.8-1.5,1.4-3.1,1.8-4.8
			c0.6-2.2,1.2-4.8,1.5-6.3c1-1,1.9-2.2,2.6-3.4c1.1-2.2,0.3-2.9,0.8-4.2c-0.1,1.3,1.4,1.6,1.7,2.7c2.7-3.7,1.4-5,1.8-7.3
			c0.7,0.8,1.6,1.3,2.7,1.3c-0.2-1,0-2.1,0.4-3c0.4-0.8,1.5-2.5,1.8-3.5c0.3-0.7,0.5-1.5,0.7-2.2c1.8,0.5,3.6,0.8,5.5,1
			c3.3,0.4,6.7,0.4,10.1,0.1c1.4-0.1,2.8-0.2,4.4-0.2c1.5,0,3,0.2,4.5,0.5h0.1c3.3-0.2,9.5-0.5,11.4-2.9c0.5-0.7,0.7-1.6,0.4-2.4
			c-0.1-0.7-0.6-1.3-1.2-1.6c-2.2-1.1-6.6,0.4-8.3,0.9h-0.1c-1.9,0.7-3.9,1.2-5.9,1.5c-3.3,0.6-10.8,1.1-13.4-1.1
			c-0.8-0.6-1.3-1.6-1.4-2.6c-0.2-1.2,0.2-2.5,1-3.4c1-1.1,2.7-1.5,5.7-1.5c1.2,0,3.2,0.1,5.8,0.3l0.4,0.5l-0.4,0.4l-5.8-0.1
			c-2.5,0-3.9,0.4-4.7,1.2c-0.6,0.8-0.8,1.7-0.8,2.6c0.1,0.7,0.5,1.3,1,1.8c2.5,2,9.4,1.2,12.2,0.8c2.1-0.3,4.2-0.8,6.2-1.6
			c3.2-1.1,6.8-2.1,9.4-0.7c1,0.4,1.7,1.3,1.9,2.3C930.5,53.5,930.2,55,929.3,56.1"/>
		<polygon class="st3" points="877.7,49.7 877.6,51.3 874.7,49.7 		"/>
		<path class="st3" d="M881.4,51.4c0,0.1,0.5,4,0.5,4l-2.2,1.2c0,0.1,0,1.3,0,1.4c0.3,0.2,0.6,0.4,0.9,0.5c0.5,0.2,1,0.2,1.4,0.1
			h0.2l-0.2,0.5h-0.1c-0.5,0.1-1,0.1-1.5,0c-0.3-0.1-0.7-0.2-1-0.5h-0.3c-0.3,0.2-0.6,0.4-1,0.5c-0.5,0.1-1,0.1-1.5,0h-0.1l-0.2-0.5
			h0.2c0.5,0.1,1,0.1,1.4-0.1c0.3-0.1,0.6-0.3,0.9-0.5v-1.5l-2.1-1.5h4v-5.3h3.1h0.4L881.4,51.4"/>
		<path class="st3" d="M1223.2,53.5c-14.1,0-25.5-11.4-25.5-25.5c-0.1-14,11.1-25.5,25.2-25.7c0.1,0,0.2,0,0.4,0
			c14.1,0,25.5,11.4,25.5,25.5C1248.7,42,1237.3,53.5,1223.2,53.5z M1223.2,4.6C1210.3,4.7,1200,15.1,1200,28
			c0,12.8,10.4,23.2,23.2,23.2c12.9,0,23.3-10.4,23.4-23.2C1246.4,15.1,1236,4.7,1223.2,4.6z"/>
		<path class="st3" d="M1250.4,53.5c-0.2,0-0.3,0-0.4-0.1c-0.6-0.3-0.9-1-0.6-1.6l10-20.6c0.2-0.4,0.5-0.7,1-0.7h14.2
			c0.6,0,1.1,0.5,1.2,1.2c0,0.6-0.5,1.1-1.2,1.2h-13.4l-9.7,19.9C1251.4,53.1,1250.9,53.5,1250.4,53.5z"/>
		<path class="st3" d="M1298.6,53.5c-0.4,0-0.8-0.3-1-0.7l-23.8-48.9c-0.3-0.6,0-1.3,0.6-1.6s1.3,0,1.6,0.6l23.8,48.9
			c0.3,0.6,0,1.3-0.6,1.6C1299,53.5,1298.8,53.5,1298.6,53.5z"/>
		<path class="st3" d="M1147,53.5c-0.6,0-1.1-0.5-1.2-1.2V3.5c0-0.6,0.5-1.1,1.2-1.2h17.7c13.9,0.2,25.1,11.6,24.9,25.5
			c0,13.9-11.1,25.3-24.9,25.5H1147V53.5z M1148.2,51.2h16.7c12.7-0.3,22.7-10.7,22.6-23.4c0.1-12.6-10-23-22.6-23.2h-16.7V51.2z"/>
		<path class="st3" d="M1236.9,71.3v15.6c0,0.6,0.4,1,1,1s1-0.4,1-1V71.3h4.6c0.5,0,1-0.4,1-0.9v-0.1c0-0.6-0.4-1-1-1h-11.1
			c-0.6,0-1,0.4-1,1s0.4,1,1,1H1236.9z"/>
		<path class="st3" d="M1172.4,78.4h-0.7l-0.1,0.1v1l0,0v0.8l0,0l5.4,7.5c0.2,0.3,0.5,0.4,0.8,0.4c0.3,0,0.4,0,0.5-0.1
			c0.4-0.3,0.5-0.9,0.3-1.4l-4.4-6.7c2.3-0.7,3.8-2.9,3.7-5.3c0-3-2.5-5.5-5.5-5.5h-5c-0.5,0-1,0.4-1,0.9v0.1v16.6c0,0.6,0.4,1,1,1
			s1-0.4,1-1V71.3h4c2,0,3.6,1.6,3.6,3.5c0,0,0,0,0,0.1C1175.9,76.8,1174.3,78.3,1172.4,78.4z"/>
		<path class="st3" d="M1158.7,87.9h0.4c0.5-0.1,0.7-0.6,0.6-1.1c0-0.1,0-0.1-0.1-0.2l-6.1-16.6c-0.1-0.5-0.6-0.7-1.1-0.6
			c-0.1,0-0.1,0-0.2,0.1c-0.5,0.1-0.8,0.6-0.6,1.1c0,0.1,0,0.1,0.1,0.2l3,8.4h-5.5c-0.5-0.1-1,0.2-1.1,0.7l0,0l-2.5,6.9
			c-0.2,0.5,0.1,1,0.6,1.2h0.4c0.5,0,0.9-0.3,1-0.7l2.4-6.2h5.8l2.4,6.2C1158,87.6,1158.3,87.9,1158.7,87.9z"/>
		<path class="st3" d="M1186.9,76.6v-1.4c0-2.2,1.8-4,4-4c1.8,0,3.4,1.2,3.9,2.9c0.1,0.5,0.7,0.8,1.2,0.7l0,0
			c0.5-0.1,0.8-0.7,0.7-1.2l0,0c-0.7-2.6-3.1-4.4-5.8-4.4c-3.4,0-6.1,2.7-6.1,6.1v6.6c0,3.3,2.7,6.1,6.1,6.1c2.7,0,5.1-1.8,5.8-4.4
			c0.2-0.5-0.1-1.1-0.7-1.2l0,0c-0.5-0.2-1.1,0.2-1.2,0.7l0,0c-0.5,1.8-2.1,3-3.9,2.9c-2.2,0-4-1.8-4-4V76.6L1186.9,76.6z"/>
		<path class="st3" d="M1214.7,87.9c0.6,0,1-0.4,1-1V70.3c0-0.6-0.4-1-1-1c-0.6,0-1,0.4-1,1v7.1h-7.8v-7.1c0-0.6-0.4-1-1-1
			c-0.5,0-1,0.4-1,0.9v0.1v16.6c0,0.5,0.4,1,0.9,1h0.1c0.6,0,1-0.4,1-1v-7.6h7.8v7.6C1213.6,87.5,1214.2,87.9,1214.7,87.9z"/>
		<path class="st3" d="M1223,70.2v16.6c0,0.6,0.4,1,1,1s1-0.4,1-1V70.2c0-0.5-0.4-1-0.9-1h-0.1C1223.5,69.2,1223,69.6,1223,70.2z"/>
		<path class="st3" d="M1269.8,76.6v-1.4c0-2.2,1.8-4,4-4c1.8,0,3.4,1.2,3.9,2.9c0.1,0.5,0.7,0.8,1.2,0.7l0,0
			c0.5-0.1,0.8-0.7,0.7-1.2l0,0c-0.7-2.6-3.1-4.4-5.8-4.4c-3.4,0-6.1,2.7-6.1,6.1v6.6c0,3.3,2.7,6.1,6.1,6.1c2.7,0,5.1-1.8,5.8-4.4
			c0.2-0.5-0.1-1.1-0.7-1.2l0,0c-0.5-0.2-1.1,0.2-1.2,0.7l0,0c-0.5,1.8-2.1,3-3.9,2.9c-2.2,0-4-1.8-4-4V76.6L1269.8,76.6z"/>
		<path class="st3" d="M1315.9,69.2c-0.5,0-1,0.4-1,0.9v0.1v11.1c0,2.5-2.1,4.5-4.6,4.6c-2.5,0-4.5-2.1-4.6-4.6V70.2
			c0-0.5-0.4-1-0.9-1h-0.1c-0.5,0-1,0.4-1,0.9v0.1v11.1c0,3.7,3,6.6,6.6,6.7c3.7,0,6.6-3,6.6-6.6l0,0V70.2
			C1316.9,69.7,1316.4,69.3,1315.9,69.2z"/>
		<path class="st3" d="M1330.8,80c2.3-0.7,3.8-2.9,3.7-5.3c0-3.1-2.5-5.5-5.5-5.5h-5c-0.5,0-1,0.4-1,0.9v0.1v16.6c0,0.6,0.4,1,1,1
			s1-0.4,1-1V71.3h4c2,0,3.6,1.6,3.6,3.5c0,0,0,0,0,0.1c0,2-1.6,3.6-3.5,3.6c0,0,0,0-0.1,0h-0.7l-0.1,0.1v1l0,0v0.8l0,0l5.4,7.5
			c0.2,0.3,0.5,0.4,0.8,0.4c0.3,0,0.4,0,0.5-0.1c0.4-0.3,0.5-0.9,0.3-1.4L1330.8,80z"/>
		<path class="st3" d="M1350.9,85.8h-7.5v-6.5h5.4c0.6,0,1-0.4,1-1s-0.4-1-1-1h-5.4v-6h7.5c0.6,0,1-0.4,1-1s-0.4-1-1-1h-8.4
			c-0.5,0-1,0.4-1,0.9v0.1v16.6c0,0.5,0.4,1,0.9,1h0.1h8.4c0.5,0,1-0.4,1-0.9v-0.1C1352,86.2,1351.6,85.8,1350.9,85.8z"/>
		<path class="st3" d="M1297.1,69.2H1286c-0.5,0-1,0.4-1,0.9v0.1c0,0.6,0.4,1,1,1h4.6v15.6c0,0.5,0.4,1,0.9,1h0.1c0.6,0,1-0.4,1-1
			V71.3h4.6c0.6,0,1-0.4,1-1c0.1-0.5-0.2-1-0.7-1.1C1297.3,69.2,1297.2,69.2,1297.1,69.2z"/>
		<path class="st3" d="M1260.4,71.3c0.5,0,1-0.4,1-0.9v-0.1c0-0.6-0.4-1-1-1h-8.4c-0.6,0-1,0.4-1,1v16.6c0,0.6,0.4,1,1,1h8.4
			c0.6,0,1-0.4,1-1c0-0.5-0.4-1-0.9-1h-0.1h-7.5v-6.5h5.4c0.5,0,1-0.4,1-0.9v-0.1c0-0.5-0.4-1-0.9-1h-0.1h-5.4v-6L1260.4,71.3
			L1260.4,71.3z"/>
		<path class="st3" d="M1510.7,62.3c-3.3-3.5-5-8.2-5-14.1V10.1h6.5v36.6c0,5.3,1.2,9.3,3.5,12.1c2.3,2.8,5.7,4.2,10.2,4.2
			c4.7,0,8.2-1.4,10.5-4.3c2.3-2.9,3.5-6.9,3.5-12V10.1h4.8v38.1c0,5.9-1.6,10.6-4.9,14.1c-3.2,3.5-8.1,5.2-14.6,5.2
			C1518.9,67.5,1514.1,65.7,1510.7,62.3z"/>
		<path class="st3" d="M1562.9,59.9c-4.4-5.1-6.5-12.1-6.5-21c-0.1-5.4,0.9-10.7,3-15.6c1.8-4.2,4.7-7.8,8.5-10.3
			c3.8-2.5,8.3-3.7,12.8-3.6c2.6,0,5.2,0.3,7.7,1c2.2,0.6,4.3,1.4,6.3,2.4c0.9,0.4,1.8,0.9,2.6,1.4l-0.8,4.2
			c-0.8-0.5-1.7-0.9-2.5-1.3c-1.9-0.9-3.9-1.6-5.9-2.2c-2.2-0.7-4.4-1-6.7-1c-5.2-0.2-10.2,2.2-13.2,6.3c-3.2,4.3-4.8,10.5-4.8,18.7
			c0,8.1,1.6,14.1,4.9,18.3c3.2,4.1,7.8,6.2,13.6,6.2c2.8,0.1,5.6-0.6,8.1-1.9c2-1.1,3.9-2.4,5.5-4.1c0.8-0.7,1.5-1.6,2-2.5l2.4,2.7
			c0,0.3-0.8,1.3-2.3,3c-1.9,2-4.1,3.6-6.5,4.8c-3.1,1.6-6.6,2.4-10.1,2.3C1573.3,67.5,1567.2,64.9,1562.9,59.9z"/>
		<path class="st3" d="M1609.9,10.1h17.2c8.1,0,14.4,2.4,18.9,7.4c4.5,4.9,6.7,11.9,6.7,21.1c0,9.1-2.2,16.1-6.7,20.9
			s-10.8,7.2-19,7.2h-17.2L1609.9,10.1L1609.9,10.1z M1627.2,62.4c12.3,0,18.4-8,18.4-23.9c0-16.2-6.2-24.3-18.5-24.3h-10.6v48.2
			H1627.2z"/>
		<path class="st3" d="M1665,66.6V10.1h6.6v52.4h25.1v4.2L1665,66.6z"/>
		<path class="st3" d="M1509.4,83.3c0.3,0,0.6-0.1,0.9-0.2c0.3-0.1,0.5-0.3,0.7-0.5c0.2-0.2,0.3-0.5,0.4-0.7c0.1-0.3,0.2-0.7,0.1-1
			v-5.6h1.7V81c0,0.5-0.1,1.1-0.3,1.6c-0.3,0.9-1.1,1.7-2,2c-1,0.4-2.2,0.4-3.2,0c-0.5-0.2-0.9-0.4-1.2-0.8
			c-0.3-0.3-0.6-0.8-0.8-1.2c-0.2-0.5-0.3-1-0.3-1.6v-5.6h1.7V81c0,0.3,0,0.7,0.1,1s0.2,0.5,0.4,0.7c0.2,0.2,0.4,0.4,0.7,0.5
			C1508.7,83.3,1509.1,83.3,1509.4,83.3z"/>
		<path class="st3" d="M1517.5,81.1v3.6h-1.7v-9.3h2.8c0.5,0,1.1,0.1,1.6,0.2c0.4,0.1,0.8,0.3,1.1,0.6c0.3,0.2,0.5,0.5,0.6,0.8
			s0.2,0.7,0.2,1.1c0,0.3,0,0.6-0.1,0.9s-0.2,0.5-0.4,0.8c-0.2,0.2-0.4,0.4-0.6,0.6c-0.3,0.2-0.6,0.3-0.9,0.4
			c0.2,0.1,0.4,0.3,0.6,0.5l2.3,3.4h-1.5c-0.3,0-0.5-0.1-0.7-0.3l-2-2.9c-0.1-0.1-0.1-0.2-0.2-0.2c-0.1-0.1-0.3-0.1-0.4-0.1
			L1517.5,81.1z M1517.5,79.8h1.1c0.3,0,0.6,0,0.8-0.1c0.2-0.1,0.4-0.2,0.6-0.3c0.2-0.1,0.3-0.3,0.3-0.5c0.1-0.2,0.1-0.4,0.1-0.7
			c0-0.4-0.1-0.8-0.5-1.1c-0.4-0.3-0.9-0.4-1.4-0.4h-1.1v3.1H1517.5z"/>
		<path class="st3" d="M1524.8,84.7v-9.3h3.2c0.5,0,1,0,1.5,0.2c0.4,0.1,0.7,0.3,1.1,0.5c0.3,0.2,0.5,0.5,0.6,0.8s0.2,0.7,0.2,1
			c0,0.2,0,0.4-0.1,0.6s-0.2,0.4-0.3,0.6s-0.3,0.3-0.5,0.5c-0.2,0.1-0.5,0.3-0.7,0.4c1.3,0.3,1.9,1,1.9,2.1c0,0.4-0.1,0.7-0.2,1.1
			c-0.1,0.3-0.4,0.6-0.7,0.9c-0.3,0.3-0.7,0.5-1.1,0.6c-0.5,0.1-1,0.2-1.4,0.2L1524.8,84.7z M1526.5,79.4h1.4c0.5,0,0.9-0.1,1.3-0.3
			c0.3-0.2,0.5-0.6,0.5-1s-0.1-0.7-0.4-1c-0.4-0.2-0.8-0.3-1.3-0.3h-1.5V79.4z M1526.5,80.6v2.7h1.8c0.3,0,0.5,0,0.8-0.1
			c0.2-0.1,0.4-0.2,0.5-0.3c0.1-0.1,0.2-0.3,0.3-0.4c0.1-0.2,0.1-0.4,0.1-0.6s0-0.4-0.1-0.5c-0.1-0.2-0.2-0.3-0.3-0.4
			c-0.2-0.1-0.3-0.2-0.5-0.3c-0.3-0.1-0.5-0.1-0.8-0.1L1526.5,80.6z"/>
		<path class="st3" d="M1542,84.7h-1.3c-0.1,0-0.3,0-0.4-0.1c-0.1-0.1-0.2-0.2-0.2-0.3l-0.7-1.9h-3.9l-0.7,1.9
			c0,0.1-0.1,0.2-0.2,0.3c-0.1,0.1-0.2,0.1-0.4,0.1h-1.3l3.7-9.3h1.8L1542,84.7z M1536,81.2h3l-1.1-3.1c0-0.1-0.1-0.3-0.2-0.5
			c-0.1-0.2-0.1-0.4-0.2-0.6c-0.1,0.2-0.1,0.4-0.2,0.6l-0.2,0.5L1536,81.2z"/>
		<path class="st3" d="M1544.8,75.4L1544.8,75.4c0.1,0,0.2,0,0.2,0.1l0.1,0.1l4.9,6.2c0-0.2,0-0.3,0-0.4s0-0.3,0-0.4v-5.6h1.5v9.3
			h-0.9c-0.1,0-0.2,0-0.3-0.1s-0.2-0.1-0.3-0.2l-4.9-6.2c0,0.1,0,0.3,0,0.4s0,0.2,0,0.4v5.7h-1.5v-9.3H1544.8L1544.8,75.4z"/>
		<path class="st3" d="M1563.7,82.5c0.1,0,0.2,0,0.2,0.1l0.7,0.7c-0.4,0.5-0.8,0.8-1.4,1.1c-0.6,0.3-1.3,0.4-2,0.4
			c-0.6,0-1.3-0.1-1.9-0.4c-0.5-0.2-1-0.6-1.4-1s-0.7-1-0.9-1.5c-0.2-0.6-0.3-1.3-0.3-1.9c0-0.7,0.1-1.3,0.3-1.9
			c0.2-0.6,0.6-1.1,1-1.5s0.9-0.8,1.5-1s1.3-0.4,1.9-0.3c0.6,0,1.2,0.1,1.8,0.3c0.5,0.2,0.9,0.5,1.3,0.9l-0.6,0.8
			c0,0.1-0.1,0.1-0.1,0.1c-0.1,0-0.1,0.1-0.2,0.1s-0.2-0.1-0.3-0.1l-0.4-0.2c-0.2-0.1-0.4-0.2-0.6-0.2c-0.7-0.2-1.5-0.1-2.1,0.1
			c-0.4,0.1-0.7,0.4-0.9,0.7c-0.3,0.3-0.5,0.6-0.6,1c-0.2,0.4-0.2,0.9-0.2,1.4s0.1,0.9,0.2,1.4c0.1,0.4,0.3,0.7,0.6,1
			c0.3,0.3,0.6,0.5,0.9,0.6c0.3,0.2,0.7,0.2,1.1,0.2c0.2,0,0.4,0,0.6,0c0.2,0,0.4-0.1,0.5-0.1c0.2,0,0.3-0.1,0.5-0.2
			c0.2-0.1,0.3-0.2,0.4-0.3l0.1-0.1C1563.6,82.5,1563.6,82.5,1563.7,82.5z"/>
		<path class="st3" d="M1568.3,83.3h3.7v1.4h-5.5v-9.3h1.7L1568.3,83.3L1568.3,83.3z"/>
		<path class="st3" d="M1575.9,84.7h-1.7v-9.3h1.7V84.7z"/>
		<path class="st3" d="M1583.5,81.3l0.2,0.4l0.2-0.5l0.2-0.4l2.8-5.2c0-0.1,0.1-0.1,0.1-0.2l0.1-0.1h0.2h1.5v9.3h-1.6v-6.4
			c0-0.1,0-0.3,0-0.4l-2.8,5.3c-0.1,0.1-0.1,0.2-0.2,0.3c-0.1,0.1-0.2,0.1-0.4,0.1h-0.2c-0.1,0-0.2,0-0.4-0.1
			c-0.1-0.1-0.2-0.2-0.2-0.3l-2.8-5.3c0,0.1,0,0.3,0,0.4v6.4h-1.5v-9.3h1.5c0,0,0.1,0,0.2,0l0.1,0.1c0,0,0.1,0.1,0.1,0.2l2.8,5.2
			C1583.3,81,1583.4,81.1,1583.5,81.3z"/>
		<path class="st3" d="M1599.5,84.7h-1.3c-0.1,0-0.3,0-0.4-0.1c-0.1-0.1-0.2-0.2-0.2-0.3l-0.7-1.9h-3.9l-0.7,1.9
			c0,0.1-0.1,0.2-0.2,0.3c-0.1,0.1-0.2,0.1-0.4,0.1h-1.3l3.7-9.3h1.8L1599.5,84.7z M1593.5,81.2h3l-1.1-3.1c0-0.1-0.1-0.3-0.2-0.5
			c-0.1-0.2-0.1-0.4-0.2-0.6c0,0.2-0.1,0.4-0.2,0.6l-0.2,0.5L1593.5,81.2z"/>
		<path class="st3" d="M1606.7,75.4v1.4h-2.8v7.9h-1.7v-7.9h-2.8v-1.4H1606.7z"/>
		<path class="st3" d="M1614.4,75.4v1.4h-4.1v2.6h3.2v1.3h-3.2v2.6h4.1v1.4h-5.9v-9.3H1614.4z"/>
		<path class="st3" d="M1628,80c0,0.6-0.1,1.3-0.3,1.9c-0.2,0.6-0.5,1.1-1,1.5c-0.4,0.4-0.9,0.8-1.5,1s-1.3,0.4-1.9,0.3h-3.5v-9.3
			h3.5c0.7,0,1.3,0.1,1.9,0.3c0.6,0.2,1.1,0.6,1.5,1s0.7,0.9,1,1.5C1627.9,78.8,1628,79.4,1628,80z M1626.2,80
			c0-0.5-0.1-0.9-0.2-1.4c-0.1-0.4-0.3-0.7-0.6-1c-0.3-0.3-0.6-0.5-0.9-0.6c-0.4-0.2-0.8-0.2-1.2-0.2h-1.8v6.6h1.8
			c0.4,0,0.8-0.1,1.2-0.2s0.7-0.4,0.9-0.6c0.3-0.3,0.5-0.6,0.6-1C1626.2,81,1626.3,80.5,1626.2,80z"/>
		<path class="st3" d="M1635.9,75.4v1.4h-4.1v2.6h3.3v1.3h-3.2v2.6h4.1v1.4h-5.9v-9.3H1635.9z"/>
		<path class="st3" d="M1643.1,77.1c0,0.1-0.1,0.2-0.2,0.2s-0.1,0-0.2,0c-0.1,0-0.2,0-0.3-0.1L1642,77c-0.2-0.1-0.3-0.2-0.5-0.2
			c-0.2-0.1-0.5-0.1-0.7-0.1c-0.2,0-0.4,0-0.6,0.1c-0.2,0-0.3,0.1-0.5,0.2c-0.1,0.1-0.2,0.2-0.3,0.4c-0.1,0.2-0.1,0.3-0.1,0.5
			s0.1,0.4,0.2,0.5c0.1,0.2,0.3,0.3,0.5,0.4c0.2,0.1,0.4,0.2,0.7,0.3l0.8,0.3c0.3,0.1,0.5,0.2,0.8,0.3c0.3,0.1,0.5,0.3,0.7,0.5
			c0.2,0.2,0.4,0.4,0.5,0.7c0.1,0.3,0.2,0.7,0.2,1c0,0.4-0.1,0.8-0.2,1.2c-0.1,0.4-0.3,0.7-0.6,1c-0.3,0.3-0.6,0.5-1,0.6
			c-0.4,0.2-0.9,0.3-1.4,0.2c-0.6,0-1.2-0.1-1.7-0.3c-0.3-0.1-0.5-0.2-0.7-0.4c-0.2-0.1-0.4-0.3-0.6-0.5l0.5-0.8
			c0.1-0.1,0.1-0.1,0.2-0.2c0.1,0,0.1-0.1,0.2-0.1s0.2,0.1,0.3,0.1l0.5,0.3c0.2,0.1,0.4,0.2,0.6,0.3c0.3,0.1,0.5,0.1,0.8,0.1
			c0.4,0,0.8-0.1,1.2-0.4c0.3-0.3,0.4-0.6,0.4-1c0-0.2-0.1-0.4-0.2-0.6c-0.1-0.2-0.3-0.3-0.5-0.4c-0.2-0.1-0.4-0.2-0.7-0.3l-0.8-0.2
			c-0.3-0.1-0.5-0.2-0.8-0.3c-0.3-0.1-0.5-0.3-0.7-0.5c-0.2-0.2-0.4-0.4-0.5-0.7c-0.1-0.3-0.2-0.7-0.2-1.1c0-0.3,0.1-0.7,0.2-1
			s0.3-0.6,0.6-0.8c0.3-0.3,0.6-0.5,1-0.6c0.4-0.2,0.8-0.2,1.3-0.2s1,0.1,1.5,0.3c0.4,0.2,0.8,0.4,1.2,0.7L1643.1,77.1z"/>
		<path class="st3" d="M1647.7,84.7h-1.8v-9.3h1.8V84.7z"/>
		<path class="st3" d="M1654.7,83.4c0.3,0,0.7,0,1-0.1c0.3-0.1,0.6-0.2,0.8-0.3v-1.7h-1.2c-0.1,0-0.2,0-0.3-0.1s-0.1-0.1-0.1-0.2v-1
			h3.1v3.8c-0.2,0.2-0.5,0.3-0.7,0.5c-0.3,0.1-0.5,0.2-0.8,0.3c-0.3,0.1-0.6,0.1-0.9,0.2c-0.4,0-0.7,0.1-1.1,0.1
			c-0.6,0-1.3-0.1-1.9-0.3c-0.6-0.2-1.1-0.6-1.5-1s-0.8-0.9-1-1.5c-0.2-0.6-0.4-1.3-0.3-1.9c0-0.7,0.1-1.3,0.3-1.9
			c0.4-1.2,1.3-2.1,2.5-2.5c0.6-0.2,1.3-0.4,2-0.3c0.7,0,1.4,0.1,2,0.3c0.5,0.2,1,0.5,1.4,0.9l-0.5,0.8c-0.1,0.1-0.2,0.2-0.4,0.2
			c-0.1,0-0.2,0-0.3-0.1l-0.4-0.2c-0.2-0.1-0.3-0.2-0.5-0.2c-0.2-0.1-0.4-0.1-0.6-0.2c-0.2,0-0.5-0.1-0.8-0.1
			c-0.4,0-0.9,0.1-1.2,0.2c-0.4,0.2-0.7,0.4-1,0.7c-0.3,0.3-0.5,0.6-0.6,1s-0.2,0.9-0.2,1.3c0,0.5,0.1,1,0.2,1.4s0.4,0.7,0.6,1
			c0.3,0.3,0.6,0.5,1,0.7C1653.8,83.3,1654.3,83.4,1654.7,83.4z"/>
		<path class="st3" d="M1661.5,75.4L1661.5,75.4l0.2,0.1l0.1,0.1l4.9,6.2c0-0.2,0-0.3,0-0.4s0-0.3,0-0.4v-5.6h1.5v9.3h-0.9
			c-0.1,0-0.2,0-0.3-0.1s-0.2-0.1-0.3-0.2l-4.9-6.2v6.5h-1.5v-9.3H1661.5L1661.5,75.4z"/>
		<path class="st3" d="M1675.7,83.3h3.7v1.4h-5.5v-9.3h1.7L1675.7,83.3z"/>
		<path class="st3" d="M1689.5,84.7h-1.3c-0.1,0-0.3,0-0.4-0.1c-0.1-0.1-0.2-0.2-0.2-0.3l-0.7-1.9h-3.8l-0.7,1.9
			c0,0.1-0.1,0.2-0.2,0.3c-0.1,0.1-0.2,0.1-0.4,0.1h-1.3l3.7-9.3h1.8L1689.5,84.7z M1683.5,81.2h3l-1.1-3.1c0-0.1-0.1-0.3-0.2-0.5
			c-0.1-0.2-0.1-0.4-0.2-0.6c-0.1,0.2-0.1,0.4-0.2,0.6l-0.2,0.5L1683.5,81.2z"/>
		<path class="st3" d="M1691.2,84.7v-9.3h3.2c0.5,0,1,0,1.5,0.2c0.4,0.1,0.7,0.3,1.1,0.5c0.3,0.2,0.5,0.5,0.6,0.8s0.2,0.7,0.2,1
			c0,0.2,0,0.4-0.1,0.6s-0.2,0.4-0.3,0.6s-0.3,0.3-0.5,0.5c-0.2,0.1-0.5,0.3-0.7,0.4c1.3,0.3,1.9,1,1.9,2.1c0,0.4-0.1,0.7-0.2,1.1
			c-0.1,0.3-0.4,0.6-0.7,0.9c-0.3,0.3-0.7,0.5-1.1,0.6c-0.5,0.1-0.9,0.2-1.4,0.2L1691.2,84.7z M1692.9,79.4h1.4
			c0.5,0,0.9-0.1,1.3-0.3c0.3-0.2,0.5-0.6,0.5-1s-0.1-0.7-0.4-1c-0.4-0.2-0.8-0.3-1.3-0.3h-1.5V79.4z M1692.9,80.6v2.7h1.8
			c0.3,0,0.5,0,0.8-0.1c0.2-0.1,0.4-0.2,0.5-0.3c0.1-0.1,0.2-0.3,0.3-0.4c0.1-0.2,0.1-0.4,0.1-0.6s0-0.4-0.1-0.5
			c-0.1-0.2-0.2-0.3-0.3-0.4c-0.2-0.1-0.3-0.2-0.5-0.3c-0.3-0.1-0.5-0.1-0.8-0.1L1692.9,80.6z"/>
		<polygon class="st3" points="1700.9,94.1 1489.7,94.1 1489.7,19.1 1483,19.1 1483,13.1 1478.7,13.1 1467.6,28.3 1455.8,28.3 
			1455.8,94 1438,94 1438,48.9 1422.6,48.9 1422.6,94 1404,94 1404,92.3 1421,92.3 1421,47.2 1439.7,47.2 1439.7,92.3 1454.2,92.3 
			1454.2,26.7 1466.8,26.7 1477.9,11.5 1484.6,11.5 1484.6,17.5 1491.3,17.5 1491.3,92.5 1700.9,92.5 		"/>
		<line class="st2" x1="1121" y1="0.3" x2="1121" y2="106.3"/>
		<line class="st2" x1="1377.9" y1="0.7" x2="1377.9" y2="106.7"/>
	</g>
</g>
<g id="FRS">
	<g>
		<path class="st3" d="M656.2,10.4v5.1h8.1v3.6h-8.1v8.4h-4V6.8h13.6v3.6H656.2z"/>
		<path class="st3" d="M677.5,27.6c-4.2,0-7.6-2.9-7.6-7.2V6.8h4v13.4c0,2.4,1.4,3.8,3.6,3.8c2.2,0,3.6-1.4,3.6-3.8V6.8h4v13.6
			C685.1,24.7,681.7,27.6,677.5,27.6z"/>
		<path class="st3" d="M698.4,10.4v17h-4v-17H689V6.8h14.8v3.6H698.4z"/>
		<path class="st3" d="M715.2,27.6c-4.2,0-7.6-2.9-7.6-7.2V6.8h4v13.4c0,2.4,1.4,3.8,3.6,3.8c2.2,0,3.6-1.4,3.6-3.8V6.8h4v13.6
			C722.8,24.7,719.5,27.6,715.2,27.6z"/>
		<path class="st3" d="M739.2,27.4l-4-8.2h-2.9v8.2h-4V6.8h8.1c4.2,0,6.7,2.9,6.7,6.3c0,2.9-1.8,4.7-3.8,5.4l4.6,8.9H739.2z
			 M736,10.4h-3.8v5.4h3.8c1.8,0,2.9-1.1,2.9-2.7C739,11.5,737.8,10.4,736,10.4z"/>
		<path class="st3" d="M748.1,27.4V6.8h13.6v3.6h-9.6v4.8h8.1v3.6h-8.1v5h9.6v3.6H748.1z"/>
		<path class="st3" d="M663.1,61.7l-4-8.2h-2.9v8.2h-4V41h8.1c4.2,0,6.7,2.9,6.7,6.3c0,2.9-1.8,4.7-3.8,5.4l4.6,8.9H663.1z
			 M660,44.6h-3.8v5.4h3.8c1.8,0,2.9-1.1,2.9-2.7C662.9,45.8,661.8,44.6,660,44.6z"/>
		<path class="st3" d="M672.1,61.7V41h13.6v3.6h-9.6v4.8h8.1v3.6h-8.1v5h9.6v3.6H672.1z"/>
		<path class="st3" d="M696.2,61.8c-3.1,0-5.5-0.7-7.5-2.7l2.6-2.6c1.3,1.3,3.1,1.7,5,1.7c2.4,0,3.7-0.9,3.7-2.6
			c0-0.7-0.2-1.3-0.6-1.7c-0.4-0.4-0.8-0.5-1.9-0.7l-2.5-0.4c-1.8-0.3-3.1-0.8-4-1.7c-1-1-1.5-2.3-1.5-4.1c0-3.7,2.7-6.3,7.2-6.3
			c2.8,0,4.9,0.7,6.7,2.4l-2.5,2.5c-1.3-1.2-2.9-1.4-4.2-1.4c-2.1,0-3.2,1.2-3.2,2.6c0,0.6,0.1,1.1,0.6,1.5c0.4,0.4,1,0.7,1.9,0.8
			l2.5,0.4c1.9,0.3,3,0.8,3.9,1.6c1.1,1,1.6,2.5,1.6,4.3C703.8,59.6,700.5,61.8,696.2,61.8z"/>
		<path class="st3" d="M708.6,61.7V41h4v20.6H708.6z"/>
		<path class="st3" d="M718.3,61.7V41h4v17h9.4v3.6H718.3z"/>
		<path class="st3" d="M735.9,61.7V41h4v20.6H735.9z"/>
		<path class="st3" d="M745.7,61.7V41h13.6v3.6h-9.6v4.8h8.1v3.6h-8.1v5h9.6v3.6H745.7z"/>
		<path class="st3" d="M776.3,61.7L768.1,49v12.7h-4V41h3.6l8.2,12.6V41h4v20.6H776.3z"/>
		<path class="st3" d="M793.5,44.6v17h-4v-17h-5.4V41h14.8v3.6H793.5z"/>
		<path class="st3" d="M657.9,96.1c-3.1,0-5.5-0.7-7.5-2.7l2.6-2.6c1.3,1.3,3.1,1.7,5,1.7c2.4,0,3.7-0.9,3.7-2.6
			c0-0.7-0.2-1.3-0.6-1.7c-0.4-0.4-0.8-0.5-1.9-0.7l-2.5-0.4c-1.8-0.3-3.1-0.8-4-1.7c-1-1-1.5-2.3-1.5-4.1c0-3.7,2.7-6.3,7.2-6.3
			c2.8,0,4.9,0.7,6.7,2.4l-2.5,2.5c-1.3-1.2-2.9-1.4-4.2-1.4c-2.1,0-3.2,1.2-3.2,2.6c0,0.6,0.1,1.1,0.6,1.5c0.4,0.4,1,0.7,1.9,0.8
			l2.5,0.4c1.9,0.3,3,0.8,3.9,1.6c1.1,1,1.6,2.5,1.6,4.3C665.5,93.8,662.2,96.1,657.9,96.1z"/>
		<path class="st3" d="M677.8,87.4v8.5h-4v-8.5l-6.2-12.2h4.4l3.9,8.3l3.8-8.3h4.4L677.8,87.4z"/>
		<path class="st3" d="M693.1,96.1c-3.1,0-5.5-0.7-7.5-2.7l2.6-2.6c1.3,1.3,3.1,1.7,5,1.7c2.4,0,3.7-0.9,3.7-2.6
			c0-0.7-0.2-1.3-0.6-1.7c-0.4-0.4-0.8-0.5-1.9-0.7l-2.5-0.4c-1.8-0.3-3.1-0.8-4-1.7c-1-1-1.5-2.3-1.5-4.1c0-3.7,2.7-6.3,7.2-6.3
			c2.8,0,4.9,0.7,6.7,2.4l-2.5,2.5c-1.3-1.2-2.9-1.4-4.2-1.4c-2.1,0-3.2,1.2-3.2,2.6c0,0.6,0.1,1.1,0.6,1.5c0.4,0.4,1,0.7,1.9,0.8
			l2.5,0.4c1.9,0.3,3,0.8,3.9,1.6c1.1,1,1.6,2.5,1.6,4.3C700.8,93.8,697.5,96.1,693.1,96.1z"/>
		<path class="st3" d="M713.4,78.9v17h-4v-17H704v-3.6h14.8v3.6H713.4z"/>
		<path class="st3" d="M723,95.9V75.3h13.6v3.6H727v4.8h8.1v3.6H727v5h9.6v3.6H723z"/>
		<path class="st3" d="M756.1,95.9v-12l-3.9,7.8h-2.7l-4-7.8v12h-4V75.3h4l5.4,11.1l5.4-11.1h4v20.6H756.1z"/>
		<path class="st3" d="M771.5,96.1c-3.1,0-5.5-0.7-7.5-2.7l2.6-2.6c1.3,1.3,3.1,1.7,5,1.7c2.4,0,3.7-0.9,3.7-2.6
			c0-0.7-0.2-1.3-0.6-1.7c-0.4-0.4-0.8-0.5-1.9-0.7l-2.5-0.4c-1.8-0.3-3.1-0.8-4-1.7c-1-1-1.5-2.3-1.5-4.1c0-3.7,2.7-6.3,7.2-6.3
			c2.8,0,4.9,0.7,6.7,2.4l-2.5,2.5c-1.3-1.2-2.9-1.4-4.2-1.4c-2.1,0-3.2,1.2-3.2,2.6c0,0.6,0.1,1.1,0.6,1.5c0.4,0.4,1,0.7,1.9,0.8
			l2.5,0.4c1.9,0.3,3,0.8,3.9,1.6c1.1,1,1.6,2.5,1.6,4.3C779.2,93.8,775.8,96.1,771.5,96.1z"/>
	</g>
	<g>
		<path class="st3" d="M559.4,10.8c0-1.3,0.1-2.6,0.8-3.7c0.6-1.1,1.5-2,2.5-3l2.5,2.5c-0.7,0.7-1.1,1.1-1.6,1.9
			c-0.3,0.6-0.4,1.3-0.4,2.4v12.3c0,1.1,0.1,1.9,0.4,2.4c0.5,0.8,0.9,1.2,1.6,1.9l-2.5,2.5c-1-1-1.9-1.9-2.5-3
			c-0.7-1.2-0.8-2.4-0.8-3.7V10.8z"/>
		<path class="st3" d="M573.7,10.4v5.1h8.1V19h-8.1v8.4h-4V6.8h13.6v3.6H573.7z"/>
		<path class="st3" d="M598.2,27.4l-4-8.2h-2.9v8.2h-4V6.8h8.1c4.2,0,6.7,2.9,6.7,6.3c0,2.9-1.8,4.7-3.8,5.4l4.6,8.9H598.2z
			 M595.1,10.4h-3.8v5.4h3.8c1.8,0,2.9-1.1,2.9-2.7C598,11.5,596.9,10.4,595.1,10.4z"/>
		<path class="st3" d="M612.4,27.6c-3.1,0-5.5-0.7-7.5-2.7l2.6-2.6c1.3,1.3,3.1,1.7,5,1.7c2.4,0,3.7-0.9,3.7-2.6
			c0-0.7-0.2-1.3-0.6-1.7c-0.4-0.4-0.8-0.6-1.9-0.7l-2.5-0.4c-1.8-0.3-3.1-0.8-4-1.7c-1-1-1.5-2.3-1.5-4.1c0-3.7,2.7-6.3,7.2-6.3
			c2.8,0,4.9,0.7,6.7,2.4l-2.5,2.5c-1.3-1.2-2.9-1.4-4.2-1.4c-2.1,0-3.2,1.2-3.2,2.6c0,0.5,0.1,1.1,0.6,1.5c0.4,0.4,1,0.7,1.9,0.8
			l2.5,0.4c1.9,0.3,3,0.8,3.9,1.6c1.1,1,1.6,2.5,1.6,4.3C620,25.3,616.7,27.6,612.4,27.6z"/>
		<path class="st3" d="M628.6,27.1c-0.6,1.1-1.5,2-2.5,3l-2.5-2.5c0.7-0.7,1.1-1.1,1.6-1.9c0.3-0.6,0.4-1.3,0.4-2.4V10.9
			c0-1.1-0.1-1.9-0.4-2.4c-0.5-0.8-0.9-1.2-1.6-1.9L626,4c1,1,1.9,1.9,2.5,3c0.7,1.1,0.8,2.5,0.8,3.7v12.6
			C629.3,24.7,629.3,26,628.6,27.1z"/>
	</g>
</g>
<g id="SEC">
	<g>
		<path class="st3" d="M157.8,39.4c-4.8,0-8.6-0.9-11.8-4.1l4.9-4.9c1.6,1.6,4.4,2.2,6.9,2.2c3,0,4.4-1,4.4-2.8
			c0-0.7-0.2-1.4-0.6-1.8c-0.4-0.4-1-0.7-2-0.8l-3.8-0.5c-2.7-0.4-4.8-1.3-6.2-2.7c-1.4-1.5-2.1-3.6-2.1-6.2c0-5.7,4.3-9.8,11.3-9.8
			c4.4,0,7.8,1,10.5,3.7l-4.8,4.8c-1.6-1.6-3.4-1.8-5.9-1.8c-2.7,0-3.8,1.5-3.8,2.9c0,0.4,0.1,1,0.6,1.4c0.4,0.4,1,0.8,2.1,0.9
			l3.8,0.5c2.8,0.4,4.8,1.3,6.1,2.6c1.7,1.6,2.3,3.9,2.3,6.8C169.8,35.9,164.4,39.4,157.8,39.4z"/>
		<path class="st3" d="M176.2,39.1v-31h7.6v31H176.2z"/>
		<path class="st3" d="M209.1,39.1l-9.9-15.6v15.6h-7.6v-31h6.7l9.9,15.6V8.1h7.6v31H209.1z"/>
		<path class="st3" d="M243.3,35.9c-2.7,2.7-5.6,3.5-9,3.5c-3.8,0-6.4-1.2-8.6-3.4c-3.2-3.2-3.2-7.2-3.2-12.4c0-5.2,0-9.2,3.2-12.4
			c2.2-2.2,4.8-3.4,8.6-3.4c8,0,11.4,5.2,12.1,10.3h-7.7c-0.6-2.4-1.8-3.5-4.4-3.5c-1.4,0-2.4,0.6-3,1.4c-0.7,0.9-1.1,2-1.1,7.6
			c0,5.7,0.4,6.8,1.1,7.7c0.6,0.7,1.6,1.3,3,1.3c1.6,0,2.7-0.5,3.4-1.2c0.9-0.9,1.2-2.1,1.2-3.3v-0.4h-4.6v-6.4h12.2v4.3
			C246.4,30.6,245.6,33.5,243.3,35.9z"/>
		<path class="st3" d="M270,39.1l-1.4-4.6H259l-1.5,4.6h-8l11.3-31h5.9l11.3,31H270z M263.9,19.8l-2.8,8.3h5.4L263.9,19.8z"/>
		<path class="st3" d="M294.8,28h-4.7v11.1h-7.6v-31h12.3c6.9,0,10.6,4.9,10.6,10S301.7,28,294.8,28z M294.5,14.9h-4.3v6.3h4.3
			c2.1,0,3.3-1.5,3.3-3.1S296.6,14.9,294.5,14.9z"/>
		<path class="st3" d="M330.7,36c-2.2,2.2-4.8,3.4-8.6,3.4s-6.4-1.2-8.6-3.4c-3.2-3.2-3.2-7.2-3.2-12.4c0-5.2,0-9.2,3.2-12.4
			c2.2-2.2,4.8-3.4,8.6-3.4s6.4,1.2,8.6,3.4c3.2,3.2,3.2,7.2,3.2,12.4C333.9,28.8,333.9,32.8,330.7,36z M325.1,16
			c-0.6-0.7-1.7-1.4-3.1-1.4s-2.5,0.6-3.1,1.4c-0.7,0.9-1.1,2-1.1,7.6c0,5.7,0.4,6.7,1.1,7.6c0.6,0.7,1.7,1.4,3.1,1.4
			s2.5-0.7,3.1-1.4c0.7-0.9,1.1-1.9,1.1-7.6C326.3,17.9,325.8,16.9,325.1,16z"/>
		<path class="st3" d="M356.3,39.1l-5.5-11.6h-2.6v11.6h-7.6v-31h12.3c6.9,0,10.6,4.9,10.6,10c0,4.2-2.6,6.9-5.1,8.1l6.7,13H356.3z
			 M352.5,14.9h-4.3v6.3h4.3c2.1,0,3.3-1.5,3.3-3.1S354.6,14.9,352.5,14.9z"/>
		<path class="st3" d="M370.4,39.1v-31h21.1v6.8H378v5.2h11.5v6.8H378v5.5h13.5v6.8H370.4z"/>
		<path class="st3" d="M397.3,29.6v-6.7h14.3v6.7H397.3z"/>
		<path class="st3" d="M418.3,39.1v-31h21.1v6.8h-13.5v5.2h11.5v6.8h-11.5v5.5h13.5v6.8H418.3z"/>
		<path class="st3" d="M459.6,14.9v24.2H452V14.9h-7.6V8.1h22.9v6.8H459.6z"/>
		<path class="st3" d="M488.9,39.1V26.8h-8.1v12.3h-7.6v-31h7.6V20h8.1V8.1h7.6v31H488.9z"/>
		<path class="st3" d="M159.8,90.9c-3.8,0-6.4-1.2-8.6-3.4c-3.2-3.2-3.2-7.2-3.2-12.4c0-5.2,0-9.2,3.2-12.4c2.2-2.2,4.8-3.4,8.6-3.4
			c5.9,0,10.6,3.3,11.7,10.1h-7.8c-0.5-1.7-1.4-3.3-4-3.3c-1.4,0-2.4,0.6-3,1.3c-0.7,0.9-1.2,2-1.2,7.7c0,5.7,0.5,6.8,1.2,7.7
			c0.6,0.7,1.6,1.3,3,1.3c2.5,0,3.5-1.6,4-3.3h7.8C170.4,87.7,165.7,90.9,159.8,90.9z"/>
		<path class="st3" d="M176.9,90.7v-31H198v6.8h-13.5v5.2h11.5v6.8h-11.5v5.5H198v6.8H176.9z"/>
		<path class="st3" d="M222.4,90.7l-9.9-15.6v15.6h-7.6v-31h6.7l9.9,15.6V59.6h7.6v31H222.4z"/>
		<path class="st3" d="M250.2,66.4v24.2h-7.6V66.4h-7.6v-6.8h22.9v6.8H250.2z"/>
		<path class="st3" d="M279.4,90.7l-5.5-11.6h-2.6v11.6h-7.6v-31H276c6.9,0,10.6,4.9,10.6,10c0,4.2-2.6,6.9-5.1,8.1l6.7,13H279.4z
			 M275.6,66.5h-4.3v6.3h4.3c2.1,0,3.3-1.5,3.3-3.1S277.7,66.5,275.6,66.5z"/>
		<path class="st3" d="M293.5,90.7v-31h21.1v6.8h-13.5v5.2h11.5v6.8h-11.5v5.5h13.5v6.8H293.5z"/>
	</g>
	<g>
		<path class="st3" d="M8.7,43.4c-1.5-1.5-3.2-3.1-4.3-4.9c-1.1-1.9-1.3-4.1-1.3-6.3V15.4c0-2.1,0.1-4.4,1.3-6.3
			c1.1-1.9,2.8-3.4,4.3-4.9L13.5,9c-1.1,1.1-1.7,1.6-2.5,2.9c-0.4,0.7-0.7,2-0.7,3.8V32c0,1.8,0.3,3,0.7,3.8
			c0.8,1.4,1.4,1.8,2.5,2.9L8.7,43.4z"/>
		<path class="st3" d="M28.3,39.6c-4.8,0-8.6-0.9-11.8-4.1l4.9-4.9c1.6,1.6,4.4,2.2,6.9,2.2c3,0,4.4-1,4.4-2.8
			c0-0.7-0.2-1.4-0.6-1.8c-0.4-0.4-1-0.7-2-0.8l-3.8-0.5c-2.7-0.4-4.8-1.3-6.2-2.7c-1.4-1.5-2.1-3.6-2.1-6.2c0-5.7,4.3-9.8,11.3-9.8
			c4.4,0,7.8,1,10.5,3.7l-4.8,4.8c-1.6-1.6-3.4-1.8-5.9-1.8c-2.7,0-3.8,1.5-3.8,2.9c0,0.4,0.1,1,0.6,1.4c0.4,0.4,1,0.8,2.1,0.9
			l3.8,0.5c2.8,0.4,4.8,1.3,6.1,2.6c1.7,1.6,2.3,3.9,2.3,6.8C40.3,36.2,34.9,39.6,28.3,39.6z"/>
		<path class="st3" d="M46.1,39.4v-31h21.1v6.8H53.7v5.2h11.5v6.8H53.7v5.5h13.5v6.8H46.1z"/>
		<path class="st3" d="M84.2,39.6c-3.8,0-6.4-1.2-8.6-3.4c-3.2-3.2-3.2-7.2-3.2-12.4c0-5.2,0-9.2,3.2-12.4C77.8,9.2,80.4,8,84.2,8
			c5.9,0,10.6,3.3,11.7,10.1h-7.8c-0.5-1.7-1.4-3.3-4-3.3c-1.4,0-2.4,0.6-3,1.3c-0.7,0.9-1.2,2-1.2,7.7c0,5.7,0.5,6.8,1.2,7.7
			c0.6,0.7,1.6,1.3,3,1.3c2.5,0,3.5-1.6,4-3.3h7.8C94.8,36.3,90.1,39.6,84.2,39.6z"/>
		<path class="st3" d="M108.7,38.5c-1.1,1.9-2.8,3.4-4.3,4.9l-4.8-4.8c1.1-1.1,1.7-1.6,2.5-2.9c0.4-0.7,0.7-2,0.7-3.8V15.7
			c0-1.8-0.3-3-0.7-3.8c-0.8-1.4-1.4-1.8-2.5-2.9l4.8-4.8c1.5,1.5,3.2,3.1,4.3,4.9c1.1,1.9,1.3,4.1,1.3,6.3v16.8
			C110,34.4,109.9,36.6,108.7,38.5z"/>
	</g>
</g>
</svg>
