<?xml version="1.0" encoding="utf-8"?>
<!-- Generator: Adobe Illustrator 26.3.1, SVG Export Plug-In . SVG Version: 6.00 Build 0)  -->
<svg version="1.1" id="Layer_1" xmlns="http://www.w3.org/2000/svg" xmlns:xlink="http://www.w3.org/1999/xlink" x="0px" y="0px"
	fill='white' viewBox="0 0 296.9 114" style="enable-background:new 0 0 296.9 114;" xml:space="preserve">
<path class="st0" d="M106.7,62.3c-3.3-3.5-5-8.2-5-14.1V10.1h6.5v36.6c0,5.3,1.2,9.3,3.5,12.1s5.7,4.2,10.2,4.2
	c4.7,0,8.2-1.4,10.5-4.3s3.5-6.9,3.5-12V10.1h4.8v38.1c0,5.9-1.6,10.6-4.9,14.1c-3.2,3.5-8.1,5.2-14.6,5.2
	C114.9,67.5,110.1,65.7,106.7,62.3z"/>
<path class="st0" d="M158.9,59.9c-4.4-5.1-6.5-12.1-6.5-21c-0.1-5.4,0.9-10.7,3-15.6c1.8-4.2,4.7-7.8,8.5-10.3s8.3-3.7,12.8-3.6
	c2.6,0,5.2,0.3,7.7,1c2.2,0.6,4.3,1.4,6.3,2.4c0.9,0.4,1.8,0.9,2.6,1.4l-0.8,4.2c-0.8-0.5-1.7-0.9-2.5-1.3c-1.9-0.9-3.9-1.6-5.9-2.2
	c-2.2-0.7-4.4-1-6.7-1c-5.2-0.2-10.2,2.2-13.2,6.3c-3.2,4.3-4.8,10.5-4.8,18.7c0,8.1,1.6,14.1,4.9,18.3c3.2,4.1,7.8,6.2,13.6,6.2
	c2.8,0.1,5.6-0.6,8.1-1.9c2-1.1,3.9-2.4,5.5-4.1c0.8-0.7,1.5-1.6,2-2.5l2.4,2.7c0,0.3-0.8,1.3-2.3,3c-1.9,2-4.1,3.6-6.5,4.8
	c-3.1,1.6-6.6,2.4-10.1,2.3C169.3,67.5,163.2,64.9,158.9,59.9z"/>
<path class="st0" d="M205.9,10.1h17.2c8.1,0,14.4,2.4,18.9,7.4c4.5,4.9,6.7,11.9,6.7,21.1c0,9.1-2.2,16.1-6.7,20.9s-10.8,7.2-19,7.2
	h-17.2V10.1H205.9z M223.2,62.4c12.3,0,18.4-8,18.4-23.9c0-16.2-6.2-24.3-18.5-24.3h-10.6v48.2H223.2z"/>
<path class="st0" d="M261,66.6V10.1h6.6v52.4h25.1v4.2L261,66.6z"/>
<path class="st0" d="M105.3,83.3c0.3,0,0.6-0.1,0.9-0.2s0.5-0.3,0.7-0.5s0.3-0.5,0.4-0.7c0.1-0.3,0.2-0.7,0.1-1v-5.6h1.7V81
	c0,0.5-0.1,1.1-0.3,1.6c-0.3,0.9-1.1,1.7-2,2c-1,0.4-2.2,0.4-3.2,0c-0.5-0.2-0.9-0.4-1.2-0.8c-0.3-0.3-0.6-0.8-0.8-1.2
	c-0.2-0.5-0.3-1-0.3-1.6v-5.6h1.7V81c0,0.3,0,0.7,0.1,1s0.2,0.5,0.4,0.7c0.2,0.2,0.4,0.4,0.7,0.5C104.7,83.3,105,83.3,105.3,83.3z"
	/>
<path class="st0" d="M113.5,81.1v3.6h-1.7v-9.3h2.8c0.5,0,1.1,0.1,1.6,0.2c0.4,0.1,0.8,0.3,1.1,0.6c0.3,0.2,0.5,0.5,0.6,0.8
	s0.2,0.7,0.2,1.1c0,0.3,0,0.6-0.1,0.9s-0.2,0.5-0.4,0.8c-0.2,0.2-0.4,0.4-0.6,0.6c-0.3,0.2-0.6,0.3-0.9,0.4c0.2,0.1,0.4,0.3,0.6,0.5
	l2.3,3.4h-1.5c-0.3,0-0.5-0.1-0.7-0.3l-2-2.9c-0.1-0.1-0.1-0.2-0.2-0.2c-0.1-0.1-0.3-0.1-0.4-0.1L113.5,81.1z M113.5,79.8h1.1
	c0.3,0,0.6,0,0.8-0.1c0.2-0.1,0.4-0.2,0.6-0.3c0.2-0.1,0.3-0.3,0.3-0.5c0.1-0.2,0.1-0.4,0.1-0.7c0-0.4-0.1-0.8-0.5-1.1
	c-0.4-0.3-0.9-0.4-1.4-0.4h-1.1L113.5,79.8L113.5,79.8z"/>
<path class="st0" d="M120.8,84.7v-9.3h3.2c0.5,0,1,0,1.5,0.2c0.4,0.1,0.7,0.3,1.1,0.5c0.3,0.2,0.5,0.5,0.6,0.8s0.2,0.7,0.2,1
	c0,0.2,0,0.4-0.1,0.6s-0.2,0.4-0.3,0.6c-0.1,0.2-0.3,0.3-0.5,0.5c-0.2,0.1-0.5,0.3-0.7,0.4c1.3,0.3,1.9,1,1.9,2.1
	c0,0.4-0.1,0.7-0.2,1.1c-0.1,0.3-0.4,0.6-0.7,0.9c-0.3,0.3-0.7,0.5-1.1,0.6c-0.5,0.1-1,0.2-1.4,0.2L120.8,84.7z M122.5,79.4h1.4
	c0.5,0,0.9-0.1,1.3-0.3c0.3-0.2,0.5-0.6,0.5-1s-0.1-0.7-0.4-1c-0.4-0.2-0.8-0.3-1.3-0.3h-1.5V79.4z M122.5,80.6v2.7h1.8
	c0.3,0,0.5,0,0.8-0.1c0.2-0.1,0.4-0.2,0.5-0.3c0.1-0.1,0.2-0.3,0.3-0.4c0.1-0.2,0.1-0.4,0.1-0.6s0-0.4-0.1-0.5
	c-0.1-0.2-0.2-0.3-0.3-0.4c-0.2-0.1-0.3-0.2-0.5-0.3c-0.3-0.1-0.5-0.1-0.8-0.1L122.5,80.6z"/>
<path class="st0" d="M138,84.7h-1.3c-0.1,0-0.3,0-0.4-0.1c-0.1-0.1-0.2-0.2-0.2-0.3l-0.7-1.9h-3.9l-0.7,1.9c0,0.1-0.1,0.2-0.2,0.3
	c-0.1,0.1-0.2,0.1-0.4,0.1h-1.3l3.7-9.3h1.8L138,84.7z M132,81.2h3l-1.1-3.1c0-0.1-0.1-0.3-0.2-0.5s-0.1-0.4-0.2-0.6
	c-0.1,0.2-0.1,0.4-0.2,0.6l-0.2,0.5L132,81.2z"/>
<path class="st0" d="M140.8,75.4h0.1c0,0,0.1,0,0.1,0.1l0.1,0.1l4.9,6.2c0-0.2,0-0.3,0-0.4s0-0.3,0-0.4v-5.6h1.5v9.3h-0.9
	c-0.1,0-0.2,0-0.3-0.1s-0.2-0.1-0.3-0.2l-4.9-6.2c0,0.1,0,0.3,0,0.4s0,0.2,0,0.4v5.7h-1.5v-9.3H140.8L140.8,75.4z"/>
<path class="st0" d="M159.7,82.5c0.1,0,0.2,0,0.2,0.1l0.7,0.7c-0.4,0.5-0.8,0.8-1.4,1.1c-0.6,0.3-1.3,0.4-2,0.4
	c-0.6,0-1.3-0.1-1.9-0.4c-0.5-0.2-1-0.6-1.4-1s-0.7-1-0.9-1.5c-0.2-0.6-0.3-1.3-0.3-1.9c0-0.7,0.1-1.3,0.3-1.9s0.6-1.1,1-1.5
	s0.9-0.8,1.5-1s1.3-0.4,1.9-0.3c0.6,0,1.2,0.1,1.8,0.3c0.5,0.2,0.9,0.5,1.3,0.9l-0.6,0.8c0,0.1-0.1,0.1-0.1,0.1
	c-0.1,0-0.1,0.1-0.2,0.1c-0.1,0-0.2-0.1-0.3-0.1l-0.4-0.2c-0.2-0.1-0.4-0.2-0.6-0.2c-0.7-0.2-1.5-0.1-2.1,0.1
	c-0.4,0.1-0.7,0.4-0.9,0.7c-0.3,0.3-0.5,0.6-0.6,1c-0.2,0.4-0.2,0.9-0.2,1.4s0.1,0.9,0.2,1.4c0.1,0.4,0.3,0.7,0.6,1s0.6,0.5,0.9,0.6
	c0.3,0.2,0.7,0.2,1.1,0.2c0.2,0,0.4,0,0.6,0c0.2,0,0.4-0.1,0.5-0.1c0.2,0,0.3-0.1,0.5-0.2s0.3-0.2,0.4-0.3l0.1-0.1
	C159.6,82.5,159.6,82.5,159.7,82.5z"/>
<path class="st0" d="M164.3,83.3h3.7v1.4h-5.5v-9.3h1.7v7.9H164.3z"/>
<path class="st0" d="M171.9,84.7h-1.7v-9.3h1.7V84.7z"/>
<path class="st0" d="M179.5,81.3l0.2,0.4l0.2-0.5l0.2-0.4l2.8-5.2c0-0.1,0.1-0.1,0.1-0.2l0.1-0.1h0.2h1.5v9.3h-1.5v-6.4
	c0-0.1,0-0.3,0-0.4l-2.8,5.3c-0.1,0.1-0.1,0.2-0.2,0.3c-0.1,0.1-0.2,0.1-0.4,0.1h-0.2c-0.1,0-0.2,0-0.4-0.1
	c-0.1-0.1-0.2-0.2-0.2-0.3l-2.8-5.3c0,0.1,0,0.3,0,0.4v6.4h-1.5v-9.3h1.5c0,0,0.1,0,0.2,0l0.1,0.1c0,0,0.1,0.1,0.1,0.2l2.8,5.2
	C179.3,81,179.4,81.1,179.5,81.3z"/>
<path class="st0" d="M195.5,84.7h-1.3c-0.1,0-0.3,0-0.4-0.1c-0.1-0.1-0.2-0.2-0.2-0.3l-0.7-1.9H189l-0.7,1.9c0,0.1-0.1,0.2-0.2,0.3
	c-0.1,0.1-0.2,0.1-0.4,0.1h-1.3l3.7-9.3h1.8L195.5,84.7z M189.5,81.2h3l-1.1-3.1c0-0.1-0.1-0.3-0.2-0.5S191,77.2,191,77
	c0,0.2-0.1,0.4-0.2,0.6l-0.2,0.5L189.5,81.2z"/>
<path class="st0" d="M202.7,75.4v1.4h-2.8v7.9h-1.7v-7.9h-2.8v-1.4H202.7z"/>
<path class="st0" d="M210.4,75.4v1.4h-4.1v2.6h3.2v1.3h-3.2v2.6h4.1v1.4h-5.9v-9.3H210.4z"/>
<path class="st0" d="M224,80c0,0.6-0.1,1.3-0.3,1.9s-0.5,1.1-1,1.5c-0.4,0.4-0.9,0.8-1.5,1s-1.3,0.4-1.9,0.3h-3.5v-9.3h3.5
	c0.7,0,1.3,0.1,1.9,0.3c0.6,0.2,1.1,0.6,1.5,1s0.7,0.9,1,1.5C223.9,78.8,224,79.4,224,80z M222.2,80c0-0.5-0.1-0.9-0.2-1.4
	c-0.1-0.4-0.3-0.7-0.6-1s-0.6-0.5-0.9-0.6c-0.4-0.2-0.8-0.2-1.2-0.2h-1.8v6.6h1.8c0.4,0,0.8-0.1,1.2-0.2s0.7-0.4,0.9-0.6
	c0.3-0.3,0.5-0.6,0.6-1C222.2,81,222.2,80.5,222.2,80z"/>
<path class="st0" d="M231.9,75.4v1.4h-4.1v2.6h3.3v1.3h-3.2v2.6h4.1v1.4h-6v-9.3H231.9z"/>
<path class="st0" d="M239.1,77.1c0,0.1-0.1,0.2-0.2,0.2c-0.1,0-0.1,0-0.2,0c-0.1,0-0.2,0-0.3-0.1L238,77c-0.2-0.1-0.3-0.2-0.5-0.2
	c-0.2-0.1-0.5-0.1-0.7-0.1s-0.4,0-0.6,0.1c-0.2,0-0.3,0.1-0.5,0.2c-0.1,0.1-0.2,0.2-0.3,0.4c-0.1,0.2-0.1,0.3-0.1,0.5
	s0.1,0.4,0.2,0.5c0.1,0.2,0.3,0.3,0.5,0.4s0.4,0.2,0.7,0.3l0.8,0.3c0.3,0.1,0.5,0.2,0.8,0.3c0.3,0.1,0.5,0.3,0.7,0.5
	s0.4,0.4,0.5,0.7c0.1,0.3,0.2,0.7,0.2,1c0,0.4-0.1,0.8-0.2,1.2c-0.1,0.4-0.3,0.7-0.6,1s-0.6,0.5-1,0.6c-0.4,0.2-0.9,0.3-1.4,0.2
	c-0.6,0-1.2-0.1-1.7-0.3c-0.3-0.1-0.5-0.2-0.7-0.4c-0.2-0.1-0.4-0.3-0.6-0.5l0.5-0.8c0.1-0.1,0.1-0.1,0.2-0.2c0.1,0,0.1-0.1,0.2-0.1
	c0.1,0,0.2,0.1,0.3,0.1l0.5,0.3c0.2,0.1,0.4,0.2,0.6,0.3c0.3,0.1,0.5,0.1,0.8,0.1c0.4,0,0.8-0.1,1.2-0.4c0.3-0.3,0.4-0.6,0.4-1
	c0-0.2-0.1-0.4-0.2-0.6c-0.1-0.2-0.3-0.3-0.5-0.4s-0.4-0.2-0.7-0.3l-0.8-0.2c-0.3-0.1-0.5-0.2-0.8-0.3c-0.3-0.1-0.5-0.3-0.7-0.5
	s-0.4-0.4-0.5-0.7c-0.1-0.3-0.2-0.7-0.2-1.1c0-0.3,0.1-0.7,0.2-1c0.1-0.3,0.3-0.6,0.6-0.8c0.3-0.3,0.6-0.5,1-0.6
	c0.4-0.2,0.8-0.2,1.3-0.2s1,0.1,1.5,0.3c0.4,0.2,0.8,0.4,1.2,0.7L239.1,77.1z"/>
<path class="st0" d="M243.7,84.7h-1.8v-9.3h1.8V84.7z"/>
<path class="st0" d="M250.7,83.4c0.3,0,0.7,0,1-0.1s0.6-0.2,0.8-0.3v-1.7h-1.2c-0.1,0-0.2,0-0.3-0.1s-0.1-0.1-0.1-0.2v-1h3.1v3.8
	c-0.2,0.2-0.5,0.3-0.7,0.5c-0.3,0.1-0.5,0.2-0.8,0.3c-0.3,0.1-0.6,0.1-0.9,0.2c-0.4,0-0.7,0.1-1.1,0.1c-0.6,0-1.3-0.1-1.9-0.3
	c-0.6-0.2-1.1-0.6-1.5-1s-0.8-0.9-1-1.5s-0.4-1.3-0.3-1.9c0-0.7,0.1-1.3,0.3-1.9c0.4-1.2,1.3-2.1,2.5-2.5c0.6-0.2,1.3-0.4,2-0.3
	c0.7,0,1.4,0.1,2,0.3c0.5,0.2,1,0.5,1.4,0.9l-0.5,0.8c-0.1,0.1-0.2,0.2-0.4,0.2c-0.1,0-0.2,0-0.3-0.1l-0.4-0.2
	c-0.2-0.1-0.3-0.2-0.5-0.2c-0.2-0.1-0.4-0.1-0.6-0.2c-0.2,0-0.5-0.1-0.8-0.1c-0.4,0-0.9,0.1-1.2,0.2c-0.4,0.2-0.7,0.4-1,0.7
	c-0.3,0.3-0.5,0.6-0.6,1s-0.2,0.9-0.2,1.3c0,0.5,0.1,1,0.2,1.4c0.1,0.4,0.4,0.7,0.6,1c0.3,0.3,0.6,0.5,1,0.7
	C249.8,83.3,250.3,83.4,250.7,83.4z"/>
<path class="st0" d="M257.5,75.4h0.1l0.1,0.1l0.1,0.1l4.9,6.2c0-0.2,0-0.3,0-0.4s0-0.3,0-0.4v-5.6h1.5v9.3h-0.9
	c-0.1,0-0.2,0-0.3-0.1c-0.1-0.1-0.2-0.1-0.3-0.2l-4.9-6.2v6.5h-1.5v-9.3H257.5L257.5,75.4z"/>
<path class="st0" d="M271.7,83.3h3.7v1.4H270v-9.3h1.7V83.3z"/>
<path class="st0" d="M285.5,84.7h-1.3c-0.1,0-0.3,0-0.4-0.1s-0.2-0.2-0.2-0.3l-0.7-1.9H279l-0.7,1.9c0,0.1-0.1,0.2-0.2,0.3
	c-0.1,0.1-0.2,0.1-0.4,0.1h-1.3l3.7-9.3h1.8L285.5,84.7z M279.5,81.2h3l-1.1-3.1c0-0.1-0.1-0.3-0.2-0.5s-0.1-0.4-0.2-0.6
	c-0.1,0.2-0.1,0.4-0.2,0.6l-0.2,0.5L279.5,81.2z"/>
<path class="st0" d="M287.2,84.7v-9.3h3.2c0.5,0,1,0,1.5,0.2c0.4,0.1,0.7,0.3,1.1,0.5c0.3,0.2,0.5,0.5,0.6,0.8s0.2,0.7,0.2,1
	c0,0.2,0,0.4-0.1,0.6s-0.2,0.4-0.3,0.6c-0.1,0.2-0.3,0.3-0.5,0.5c-0.2,0.1-0.5,0.3-0.7,0.4c1.3,0.3,1.9,1,1.9,2.1
	c0,0.4-0.1,0.7-0.2,1.1c-0.1,0.3-0.4,0.6-0.7,0.9c-0.3,0.3-0.7,0.5-1.1,0.6c-0.5,0.1-0.9,0.2-1.4,0.2L287.2,84.7z M288.9,79.4h1.4
	c0.5,0,0.9-0.1,1.3-0.3c0.3-0.2,0.5-0.6,0.5-1s-0.1-0.7-0.4-1c-0.4-0.2-0.8-0.3-1.3-0.3h-1.5V79.4z M288.9,80.6v2.7h1.8
	c0.3,0,0.5,0,0.8-0.1c0.2-0.1,0.4-0.2,0.5-0.3c0.1-0.1,0.2-0.3,0.3-0.4c0.1-0.2,0.1-0.4,0.1-0.6s0-0.4-0.1-0.5
	c-0.1-0.2-0.2-0.3-0.3-0.4c-0.2-0.1-0.3-0.2-0.5-0.3c-0.3-0.1-0.5-0.1-0.8-0.1L288.9,80.6z"/>
<polygon class="st0" points="296.9,94.1 85.7,94.1 85.7,19.1 79,19.1 79,13.1 74.7,13.1 63.6,28.3 51.8,28.3 51.8,94 34,94 34,48.9 
	18.6,48.9 18.6,94 0,94 0,92.3 17,92.3 17,47.2 35.6,47.2 35.6,92.3 50.2,92.3 50.2,26.7 62.8,26.7 73.9,11.5 80.6,11.5 80.6,17.5 
	87.3,17.5 87.3,92.5 296.9,92.5 "/>
</svg>
